<svg width="17" height="17" viewBox="0 0 17 17" fill="none" xmlns="http://www.w3.org/2000/svg"><path d="M4.12 7.518a12.27 12.27 0 005.37 5.366l1.793-1.797a.818.818 0 01.827-.2 9.274 9.274 0 002.909.465c.452 0 .815.362.815.815v2.851a.812.812 0 01-.815.815c-7.651 0-13.852-6.2-13.852-13.852 0-.452.367-.814.815-.814h2.852a.81.81 0 01.814.814c0 1.015.163 1.997.465 2.91a.817.817 0 01-.2.826L4.121 7.518z" fill="currentColor"/></svg>.16699 1.52926 1.53366 1.16667 1.98181 1.16667L4.83366 1.16667C5.28588 1.16667 5.64847 1.52926 5.64847 1.98148C5.64847 2.99593 5.81144 3.97778 6.11292 4.89037C6.20255 5.17148 6.13736 5.49333 5.91329 5.71741L4.1207 7.51815Z" fill="currentColor"/>
</svg>
