<svg width="140" height="17" viewBox="0 0 140 17" fill="none" xmlns="http://www.w3.org/2000/svg"><g clip-path="url(#clip0_283_2631)"><path fill-rule="evenodd" clip-rule="evenodd" d="M89.51 1.327A8.921 8.921 0 0085.107.2h-9.559c-2.42 0-4.482.82-6.19 2.457-1.709 1.636-2.565 3.615-2.565 5.93 0 2.315.856 4.293 2.565 5.93 1.708 1.637 3.773 2.456 6.19 2.456h9.559a8.93 8.93 0 004.403-1.126 8.429 8.429 0 003.189-3.055 8.005 8.005 0 001.162-4.205 8.004 8.004 0 00-1.162-4.205c-.775-1.287-1.84-2.305-3.189-3.055zm-1.427 10.087c-.816.783-1.808 1.175-2.976 1.175h-9.56c-1.15 0-2.134-.392-2.95-1.175-.817-.782-1.227-1.725-1.227-2.827 0-1.103.41-2.045 1.226-2.828.817-.782 1.8-1.175 2.952-1.175h9.559c1.168 0 2.16.393 2.977 1.175.816.783 1.226 1.725 1.226 2.828 0 1.102-.41 2.045-1.227 2.827zM140 .203v4.17h-9.18v12.63h-4.379V4.37h-9.155V.203H140zm-25.05 16.162c.58.315.94.515 1.065.584h-7.684c-.259-.152-1.162-.662-1.959-1.124-1.834-1.057-5.485-3.153-7.344-4.264-1.859-1.11-1.923-1.241-1.97-1.39a1.424 1.424 0 01-.073-.49 1.038 1.038 0 01.382-.774c.106-.093.229-.179.329-.224.103-.045.187-.053.228-.059.042-.005.042-.013 2.08-.016 2.037-.003 6.112-.003 8.157-.008 2.043-.005 2.057-.019 2.063-.021.005-.003.005.002.097-.024a3.25 3.25 0 00.466-.184 2.95 2.95 0 00.607-.396 2.3 2.3 0 00.527-.635c.131-.248.201-.531.231-.822a2.342 2.342 0 00-.07-.89 2.507 2.507 0 00-.431-.817 2.499 2.499 0 00-.597-.539c-.203-.13-.646-.334-.839-.347-.192-.013-.315-.003-3.771 0s-11.616-.027-12.767-.048c-.028 0-.293-.417-.318-.451-.19-.26-.596-.801-.958-1.189a6.826 6.826 0 00-1.18-1.014 17.688 17.688 0 00-1.669-.985l-.008-.006h20.694a6.29 6.29 0 011.975.398c.781.291 2.344 1.38 3.027 2.905.223.497.371.838.468 1.453.098.614.168 1.396.031 2.184-.279 1.62-.911 2.619-1.937 3.532-.217.192-.488.371-.752.55-.43.291-.934.475-1.397.617-.465.141-.914.208-1.527.262-.616.053-1.396.088-1.82.104-.663.024-.688-.086-.05.312.474.3 1.41.89 2.748 1.65 1.34.761 3.369 1.85 3.949 2.165h-.003zM41.053.023h-8.105c-2.032 0-3.762.686-5.198 2.061-1.435 1.376-2.15 3.034-2.15 4.981v9.887h4.378V12.73h14.047v4.22h4.378V7.066c0-1.947-.716-3.605-2.151-4.98C44.818.71 43.084.024 41.053.024zm2.97 8.512H29.978v-1.47c0-.788.29-1.458.87-2.013.58-.556 1.279-.833 2.101-.833h8.105c.822 0 1.521.277 2.101.833.58.555.87 1.225.87 2.013v1.471zM18.5 0h4.379v16.952H18.5v-4.237H4.378v4.237H0V0h4.378v8.517H18.5V0zm37.675 8.579L70.3 16.952h-7.712L50.169 9.596l-.192-.13-.134-.142-.106-.15-.098-.219-.027-.152-.012-.262.012-.12.072-.235.073-.117.161-.198.173-.155.14-.098.22-.163.451-.291L62.549.235h7.745L56.178 8.579h-.003z" fill="currentColor"/></g><defs><clipPath id="clip0_283_2631"><path fill="currentColor" d="M0 0h140v17H0z"/></clipPath></defs></svg>611 4.37349 115.708 4.98759C115.806 5.6017 115.876 6.38401 115.739 7.17167C115.46 8.79237 114.828 9.79095 113.802 10.7041C113.585 10.8963 113.314 11.0752 113.05 11.2541C112.62 11.5452 112.116 11.7294 111.653 11.8709C111.188 12.0124 110.739 12.0792 110.126 12.1326C109.51 12.186 108.73 12.2207 108.306 12.2367C107.643 12.2607 107.618 12.1512 108.256 12.5491C108.73 12.8481 109.666 13.4382 111.004 14.1992C112.344 14.9601 114.373 16.0495 114.953 16.3645H114.95ZM41.0527 0.0240302H32.9481C30.9163 0.0240302 29.1856 0.710225 27.7503 2.08528C26.315 3.46034 25.5987 5.11842 25.5987 7.06487V16.9519H29.9771V12.7306H44.0237V16.9519H48.4021V7.06487C48.4021 5.11842 47.6858 3.46034 46.2505 2.08528C44.8179 0.710225 43.0844 0.0240302 41.0527 0.0240302ZM44.0237 8.53605H29.9771V7.06487C29.9771 6.27721 30.267 5.60704 30.8467 5.05167C31.4264 4.49631 32.1259 4.21863 32.9481 4.21863H41.0527C41.8749 4.21863 42.5744 4.49631 43.1541 5.05167C43.7338 5.60704 44.0237 6.27721 44.0237 7.06487V8.53605ZM18.5002 0H22.8786V16.9519H18.5002V12.7146H4.3784V16.9519H0V0H4.3784V8.51736H18.5002V0ZM56.175 8.57877L70.2996 16.9519H62.5879L50.169 9.59604L49.9767 9.46521L49.8429 9.3237L49.737 9.17418L49.6395 8.95524L49.6116 8.80305L49.6005 8.54139L49.6116 8.42124L49.6841 8.18627L49.7565 8.06879L49.9182 7.87121L50.091 7.71635L50.2303 7.61756L50.4505 7.45469L50.902 7.16366L62.5489 0.234962H70.294L56.1778 8.57877H56.175Z" fill="currentColor"/>
</g>
</g>
<defs>
<clipPath id="clip0_283_2631">
<rect width="140" height="17" fill="currentColor"/>
</clipPath>
</defs>
</svg>
