<svg width="17" height="17" viewBox="0 0 17 17" fill="none" xmlns="http://www.w3.org/2000/svg"><path d="M14.318 1.833H2.682c-.579 0-1.134.235-1.543.651A2.24 2.24 0 00.5 4.056v8.889c0 .589.23 1.154.639 1.571.41.417.964.65 1.543.65h11.636a2.16 2.16 0 001.543-.65 2.24 2.24 0 00.639-1.571v-8.89a2.24 2.24 0 00-.639-1.57 2.162 2.162 0 00-1.543-.651zm-.238 9.349a.737.737 0 01.252.516.753.753 0 01-.187.544.73.73 0 01-.514.242.715.715 0 01-.529-.206L10.09 9.493a2.826 2.826 0 01-3.178 0l-3.013 2.785a.719.719 0 01-1.012-.065.749.749 0 01.034-1.031l2.877-2.66L2.92 5.856a.74.74 0 01-.238-.513.75.75 0 01.189-.534.722.722 0 011.028-.05l3.62 3.355a1.443 1.443 0 001.964 0l3.619-3.355a.72.72 0 011.027.05.75.75 0 01-.049 1.047l-2.877 2.666 2.877 2.66z" fill="currentColor"/></svg>62C13.8236 12.4578 13.7281 12.481 13.6309 12.4843C13.5337 12.4877 13.4368 12.4711 13.346 12.4357C13.2552 12.4002 13.1723 12.3466 13.1022 12.2779L10.0891 9.49276C9.61858 9.81248 9.06562 9.98311 8.5 9.98311C7.93438 9.98311 7.38143 9.81248 6.91091 9.49276L3.89782 12.2779C3.75411 12.4034 3.56803 12.4669 3.37911 12.4549C3.1902 12.4428 3.01332 12.3563 2.88607 12.2135C2.75882 12.0708 2.69121 11.8832 2.69761 11.6905C2.70402 11.4978 2.78393 11.3153 2.92036 11.1816L5.79745 8.52164L2.91964 5.85572C2.84896 5.79025 2.79164 5.71125 2.75094 5.62322C2.71024 5.53519 2.68697 5.43986 2.68244 5.34266C2.6733 5.14638 2.7411 4.95443 2.87091 4.80905C3.00072 4.66367 3.18192 4.57677 3.37464 4.56747C3.56735 4.55816 3.75581 4.62721 3.89855 4.75942L7.51964 8.11424C7.78816 8.3633 8.13827 8.50134 8.50145 8.50134C8.86464 8.50134 9.21475 8.3633 9.48327 8.11424L13.1015 4.75942C13.2442 4.62721 13.4326 4.55816 13.6254 4.56747C13.8181 4.57677 13.9993 4.66367 14.1291 4.80905C14.2589 4.95443 14.3267 5.14638 14.3176 5.34266C14.3084 5.53895 14.2231 5.7235 14.0804 5.85572L11.2033 8.52239L14.0796 11.1816Z" fill="currentColor"/>
</svg>
