<svg width="17" height="17" viewBox="0 0 17 17" fill="none" xmlns="http://www.w3.org/2000/svg"><path d="M14.318 1.833H2.682c-.579 0-1.134.235-1.543.651A2.24 2.24 0 00.5 4.056v8.889c0 .589.23 1.154.639 1.571.41.417.964.65 1.543.65h11.636a2.16 2.16 0 001.543-.65 2.24 2.24 0 00.639-1.571v-8.89a2.24 2.24 0 00-.639-1.57 2.162 2.162 0 00-1.543-.651zm-.238 9.349a.737.737 0 01.252.516.753.753 0 01-.187.544.73.73 0 01-.514.242.715.715 0 01-.529-.206L10.09 9.493a2.826 2.826 0 01-3.178 0l-3.013 2.785a.719.719 0 01-1.012-.065.749.749 0 01.034-1.031l2.877-2.66L2.92 5.856a.74.74 0 01-.238-.513.75.75 0 01.189-.534.722.722 0 011.028-.05l3.62 3.355a1.443 1.443 0 001.964 0l3.619-3.355a.72.72 0 011.027.05.75.75 0 01-.049 1.047l-2.877 2.666 2.877 2.66z" fill="currentColor"/></svg>