<svg width="50" height="50" viewBox="0 0 50 50" fill="none" xmlns="http://www.w3.org/2000/svg"><path d="M15.584 41.975v3.106a.746.746 0 01-.74.752h-2.437a.746.746 0 01-.74-.752v-3.106m3.917-33.93V4.92a.746.746 0 00-.74-.752h-2.437c-.41 0-.74.338-.74.752v3.106m22.75 0V4.919c0-.417.332-.752.74-.752h2.437c.41 0 .74.338.74.752v3.106m-3.918 33.93v3.126c0 .417.333.752.74.752h2.438c.41 0 .74-.338.74-.752v-3.106" stroke="#6B3D90" stroke-width="2" stroke-linecap="round" stroke-linejoin="round"/><path d="M7.57 15.919c.255-1.252.557-2.477.914-3.664a36.58 36.58 0 011.412-3.922l8.702.03v3.59l3.722 2.694v3.925h-2.55a18.74 18.74 0 00-.044 12.877l.044.125h2.55v3.952l-3.695 2.46v3.68H9.828C7.77 36.779 6.667 30.999 6.667 25.079c0-1.852.109-3.704.323-5.523M18.608 25H6.667m35.76 9.081a41.568 41.568 0 01-.913 3.664 36.58 36.58 0 01-1.413 3.922l-8.702-.03v-3.59l-3.721-2.694V31.43h2.55a18.74 18.74 0 00.044-12.878l-.044-.125h-2.55v-3.952l3.694-2.46v-3.68h8.8c2.058 4.888 3.162 10.668 3.162 16.588a47.37 47.37 0 01-.323 5.523M31.392 25h11.942" stroke="#6C757D" stroke-width="2" stroke-linecap="round" stroke-linejoin="round"/></svg>