<svg width="50" height="50" viewBox="0 0 50 50" fill="none" xmlns="http://www.w3.org/2000/svg"><path d="M26.25 28.333a2.083 2.083 0 100-4.166 2.083 2.083 0 000 4.166z" stroke="#6B3D90" stroke-width="2" stroke-linecap="round" stroke-linejoin="round"/><path d="M27.591 5.833a20.453 20.453 0 0113.126 5.949c7.933 7.936 7.933 20.997 0 28.933-7.934 7.936-20.99 7.936-28.924 0a20.469 20.469 0 01-5.96-13.359m28.548 7.021c4.489-4.49 4.489-11.77 0-16.26-4.489-4.491-11.767-4.491-16.256 0-4.489 4.49-4.489 11.77 0 16.26 4.49 4.49 11.767 4.49 16.256 0zm-2.29-2.291a8.258 8.258 0 000-11.675 8.251 8.251 0 00-11.672 0 8.258 8.258 0 000 11.675 8.251 8.251 0 0011.671 0z" stroke="#6C757D" stroke-width="2" stroke-linecap="round" stroke-linejoin="round"/><path d="M21.992 24.402a.626.626 0 010 .916.701.701 0 01-.96 0 .626.626 0 010-.916.701.701 0 01.96 0zm3.816-3.379a.626.626 0 000 .916.701.701 0 00.96 0 .626.626 0 000-.916.701.701 0 00-.96 0zm4.7 3.3a.626.626 0 000 .916.701.701 0 00.96 0 .626.626 0 000-.915.701.701 0 00-.96 0zm-1.74 5.402a.626.626 0 000 .915.701.701 0 00.96 0 .626.626 0 000-.915.701.701 0 00-.96 0zm-5.994.003a.626.626 0 000 .915.701.701 0 00.96 0 .626.626 0 000-.915.701.701 0 00-.96 0z" fill="#6B3D90"/><path d="M6.273 20.394a.746.746 0 11-1.055 1.055.746.746 0 011.055-1.055zM20.394 5.218a.746.746 0 101.055 1.054.746.746 0 00-1.055-1.054z" fill="#6C757D"/><path d="M11.448 13.958a20.03 20.03 0 017.72-5.625M7.113 16.54a1.547 1.547 0 000 2.176c.597.603 1.565.6 2.165 0 .6-.6.597-1.573 0-2.176a1.525 1.525 0 00-2.165 0z" stroke="#6C757D" stroke-width="2" stroke-linecap="round" stroke-linejoin="round"/><path d="M3.333 23.127l.065-7.403L15.83 3.398l7.287-.065a1.032 1.032 0 011.05 1.04l-.042 4.507L8.748 24.126l-4.366.04a1.032 1.032 0 01-1.049-1.04z" stroke="#6B3D90" stroke-width="2" stroke-linecap="round" stroke-linejoin="round"/></svg>