<svg width="3538" height="206" viewBox="0 0 3538 206" fill="none" xmlns="http://www.w3.org/2000/svg"><mask id="path-1-inside-1_283_2525" fill="#fff"><path fill-rule="evenodd" clip-rule="evenodd" d="M1099.06 16.078c-16.6-9.09-34.6-13.652-54.07-13.652H927.616c-29.703 0-55.027 9.931-76.004 29.762-20.977 19.83-31.483 43.8-31.483 71.847 0 28.047 10.506 52.018 31.483 71.848s46.335 29.761 76.004 29.761h117.374c19.44 0 37.47-4.561 54.07-13.651s29.64-21.448 39.15-37.008c9.51-15.592 14.27-32.575 14.27-50.95 0-18.374-4.76-35.358-14.27-50.95-9.51-15.592-22.59-27.917-39.15-37.007zm-17.52 122.215c-10.03 9.478-22.21 14.234-36.55 14.234H927.616c-14.133 0-26.213-4.756-36.24-14.234-10.026-9.478-15.057-20.898-15.057-34.258 0-13.36 5.031-24.78 15.057-34.258 10.027-9.478 22.107-14.233 36.24-14.233h117.374c14.34 0 26.52 4.755 36.55 14.233 10.03 9.479 15.06 20.898 15.06 34.258 0 13.36-5.03 24.78-15.06 34.258zM1719 2.459v50.53h-112.72V206h-53.76V52.956H1440.1V2.459H1719zm-307.57 195.81c7.11 3.817 11.53 6.243 13.07 7.084h-94.35c-3.18-1.844-14.27-8.023-24.05-13.619-22.52-12.81-67.35-38.204-90.18-51.662-22.82-13.457-23.61-15.042-24.19-16.854-.58-1.811-.99-3.914-.89-5.92.07-2.005.62-3.946 1.47-5.499.82-1.553 1.92-2.75 3.22-3.882 1.3-1.132 2.8-2.167 4.04-2.717 1.26-.55 2.29-.647 2.8-.712.52-.065.52-.162 25.53-.194 25.02-.032 75.05-.032 100.16-.097 25.09-.065 25.26-.227 25.33-.259.07-.032.07.032 1.2-.291a39.204 39.204 0 005.71-2.232c2.4-1.165 5-2.718 7.46-4.788 2.46-2.102 4.83-4.69 6.47-7.699 1.61-3.008 2.46-6.437 2.84-9.963.34-3.527.2-7.182-.86-10.773-1.06-3.558-3.04-7.084-5.3-9.899a30.679 30.679 0 00-7.32-6.534c-2.5-1.585-7.94-4.044-10.3-4.206-2.37-.161-3.87-.032-46.31 0-42.43.033-142.63-.323-156.76-.582-.34 0-3.59-5.046-3.9-5.467-2.33-3.138-7.32-9.705-11.77-14.395-4.45-4.691-8.52-8.217-14.48-12.293-5.95-4.076-16.9-10.222-20.5-11.937l-.1-.065h254.09c7.87.389 15.5 1.585 24.26 4.82 9.58 3.527 28.78 16.725 37.16 35.196 2.74 6.017 4.56 10.158 5.75 17.598 1.2 7.44 2.06 16.919.38 26.462-3.42 19.636-11.19 31.735-23.78 42.798-2.67 2.329-5.99 4.497-9.24 6.664-5.27 3.526-11.47 5.758-17.15 7.473-5.71 1.714-11.22 2.523-18.75 3.17-7.56.647-17.14 1.067-22.35 1.262-8.14.291-8.45-1.036-.61 3.784a816.385 816.385 0 0033.74 19.992c16.46 9.22 41.37 22.418 48.49 26.236h-.03zM504.068.291h-99.513c-24.947 0-46.198 8.314-63.821 24.974-17.624 16.66-26.418 36.748-26.418 60.331v119.789h53.76v-51.144h172.472v51.144h53.76V85.596c0-23.583-8.795-43.671-26.418-60.331C550.3 8.605 529.015.29 504.068.29zm36.48 103.13H368.076V85.596c0-9.543 3.559-17.663 10.677-24.391 7.118-6.729 15.707-10.093 25.802-10.093h99.513c10.096 0 18.685 3.364 25.803 10.093 7.118 6.728 10.677 14.848 10.677 24.391v17.825zM227.156 0h53.76v205.385h-53.76v-51.338H53.761v51.338H0V0h53.76v103.194h173.396V0zm462.593 103.938l173.43 101.447h-94.688l-152.487-89.122-2.361-1.585-1.643-1.714-1.3-1.812-1.198-2.653-.342-1.844-.137-3.17.137-1.455.889-2.847.89-1.424 1.985-2.393 2.122-1.877 1.711-1.197 2.703-1.973 5.544-3.526L768.011 2.847h95.099L689.783 103.938h-.034z"/></mask><path fill-rule="evenodd" clip-rule="evenodd" d="M1099.06 16.078c-16.6-9.09-34.6-13.652-54.07-13.652H927.616c-29.703 0-55.027 9.931-76.004 29.762-20.977 19.83-31.483 43.8-31.483 71.847 0 28.047 10.506 52.018 31.483 71.848s46.335 29.761 76.004 29.761h117.374c19.44 0 37.47-4.561 54.07-13.651s29.64-21.448 39.15-37.008c9.51-15.592 14.27-32.575 14.27-50.95 0-18.374-4.76-35.358-14.27-50.95-9.51-15.592-22.59-27.917-39.15-37.007zm-17.52 122.215c-10.03 9.478-22.21 14.234-36.55 14.234H927.616c-14.133 0-26.213-4.756-36.24-14.234-10.026-9.478-15.057-20.898-15.057-34.258 0-13.36 5.031-24.78 15.057-34.258 10.027-9.478 22.107-14.233 36.24-14.233h117.374c14.34 0 26.52 4.755 36.55 14.233 10.03 9.479 15.06 20.898 15.06 34.258 0 13.36-5.03 24.78-15.06 34.258zM1719 2.459v50.53h-112.72V206h-53.76V52.956H1440.1V2.459H1719zm-307.57 195.81c7.11 3.817 11.53 6.243 13.07 7.084h-94.35c-3.18-1.844-14.27-8.023-24.05-13.619-22.52-12.81-67.35-38.204-90.18-51.662-22.82-13.457-23.61-15.042-24.19-16.854-.58-1.811-.99-3.914-.89-5.92.07-2.005.62-3.946 1.47-5.499.82-1.553 1.92-2.75 3.22-3.882 1.3-1.132 2.8-2.167 4.04-2.717 1.26-.55 2.29-.647 2.8-.712.52-.065.52-.162 25.53-.194 25.02-.032 75.05-.032 100.16-.097 25.09-.065 25.26-.227 25.33-.259.07-.032.07.032 1.2-.291a39.204 39.204 0 005.71-2.232c2.4-1.165 5-2.718 7.46-4.788 2.46-2.102 4.83-4.69 6.47-7.699 1.61-3.008 2.46-6.437 2.84-9.963.34-3.527.2-7.182-.86-10.773-1.06-3.558-3.04-7.084-5.3-9.899a30.679 30.679 0 00-7.32-6.534c-2.5-1.585-7.94-4.044-10.3-4.206-2.37-.161-3.87-.032-46.31 0-42.43.033-142.63-.323-156.76-.582-.34 0-3.59-5.046-3.9-5.467-2.33-3.138-7.32-9.705-11.77-14.395-4.45-4.691-8.52-8.217-14.48-12.293-5.95-4.076-16.9-10.222-20.5-11.937l-.1-.065h254.09c7.87.389 15.5 1.585 24.26 4.82 9.58 3.527 28.78 16.725 37.16 35.196 2.74 6.017 4.56 10.158 5.75 17.598 1.2 7.44 2.06 16.919.38 26.462-3.42 19.636-11.19 31.735-23.78 42.798-2.67 2.329-5.99 4.497-9.24 6.664-5.27 3.526-11.47 5.758-17.15 7.473-5.71 1.714-11.22 2.523-18.75 3.17-7.56.647-17.14 1.067-22.35 1.262-8.14.291-8.45-1.036-.61 3.784a816.385 816.385 0 0033.74 19.992c16.46 9.22 41.37 22.418 48.49 26.236h-.03zM504.068.291h-99.513c-24.947 0-46.198 8.314-63.821 24.974-17.624 16.66-26.418 36.748-26.418 60.331v119.789h53.76v-51.144h172.472v51.144h53.76V85.596c0-23.583-8.795-43.671-26.418-60.331C550.3 8.605 529.015.29 504.068.29zm36.48 103.13H368.076V85.596c0-9.543 3.559-17.663 10.677-24.391 7.118-6.729 15.707-10.093 25.802-10.093h99.513c10.096 0 18.685 3.364 25.803 10.093 7.118 6.728 10.677 14.848 10.677 24.391v17.825zM227.156 0h53.76v205.385h-53.76v-51.338H53.761v51.338H0V0h53.76v103.194h173.396V0zm462.593 103.938l173.43 101.447h-94.688l-152.487-89.122-2.361-1.585-1.643-1.714-1.3-1.812-1.198-2.653-.342-1.844-.137-3.17.137-1.455.889-2.847.89-1.424 1.985-2.393 2.122-1.877 1.711-1.197 2.703-1.973 5.544-3.526L768.011 2.847h95.099L689.783 103.938h-.034z" stroke="#fff" stroke-opacity=".2" stroke-width="2" mask="url(#path-1-inside-1_283_2525)"/><mask id="path-2-inside-2_283_2525" fill="#fff"><path fill-rule="evenodd" clip-rule="evenodd" d="M2918.06 16.078c-16.6-9.09-34.6-13.652-54.07-13.652h-117.37c-29.71 0-55.03 9.931-76.01 29.762-20.97 19.83-31.48 43.8-31.48 71.847 0 28.047 10.51 52.018 31.48 71.848 20.98 19.83 46.34 29.761 76.01 29.761h117.37c19.44 0 37.47-4.561 54.07-13.651s29.64-21.448 39.15-37.008c9.51-15.592 14.27-32.575 14.27-50.95 0-18.374-4.76-35.358-14.27-50.95-9.51-15.592-22.59-27.917-39.15-37.007zm-17.52 122.215c-10.03 9.478-22.21 14.234-36.55 14.234h-117.37c-14.14 0-26.22-4.756-36.24-14.234-10.03-9.478-15.06-20.898-15.06-34.258 0-13.36 5.03-24.78 15.06-34.258 10.02-9.478 22.1-14.233 36.24-14.233h117.37c14.34 0 26.52 4.755 36.55 14.233 10.03 9.479 15.06 20.898 15.06 34.258 0 13.36-5.03 24.78-15.06 34.258zM3538 2.459v50.53h-112.72V206h-53.76V52.956H3259.1V2.459H3538zm-307.57 195.81c7.11 3.817 11.53 6.243 13.07 7.084h-94.35c-3.18-1.844-14.27-8.023-24.05-13.619-22.52-12.81-67.35-38.204-90.18-51.662-22.82-13.457-23.61-15.042-24.19-16.854-.58-1.811-.99-3.914-.89-5.92.07-2.005.62-3.946 1.47-5.499.82-1.553 1.92-2.75 3.22-3.882 1.3-1.132 2.8-2.167 4.04-2.717 1.26-.55 2.29-.647 2.8-.712.52-.065.52-.162 25.53-.194 25.02-.032 75.05-.032 100.16-.097 25.09-.065 25.26-.227 25.33-.259.07-.032.07.032 1.2-.291a39.204 39.204 0 005.71-2.232c2.4-1.165 5-2.718 7.46-4.788 2.46-2.102 4.83-4.69 6.47-7.699 1.61-3.008 2.46-6.437 2.84-9.963.34-3.527.2-7.182-.86-10.773-1.06-3.558-3.04-7.084-5.3-9.899a30.679 30.679 0 00-7.32-6.534c-2.5-1.585-7.94-4.044-10.3-4.206-2.37-.161-3.87-.032-46.31 0-42.43.033-142.63-.323-156.76-.582-.34 0-3.59-5.046-3.9-5.467-2.33-3.138-7.32-9.705-11.77-14.395-4.45-4.691-8.52-8.217-14.48-12.293-5.95-4.076-16.9-10.222-20.5-11.937l-.1-.065h254.09c7.87.389 15.5 1.585 24.26 4.82 9.58 3.527 28.78 16.725 37.16 35.196 2.74 6.017 4.56 10.158 5.75 17.598 1.2 7.44 2.06 16.919.38 26.462-3.42 19.636-11.19 31.735-23.78 42.798-2.67 2.329-5.99 4.497-9.24 6.664-5.27 3.526-11.47 5.758-17.15 7.473-5.71 1.714-11.22 2.523-18.75 3.17-7.56.647-17.14 1.067-22.35 1.262-8.14.291-8.45-1.036-.61 3.784a816.385 816.385 0 0033.74 19.992c16.46 9.22 41.37 22.418 48.49 26.236h-.03zM2323.07.291h-99.51c-24.95 0-46.2 8.314-63.83 24.974-17.62 16.66-26.41 36.748-26.41 60.331v119.789h53.76v-51.144h172.47v51.144h53.76V85.596c0-23.583-8.8-43.671-26.42-60.331C2369.3 8.605 2348.02.29 2323.07.29zm36.48 103.13h-172.47V85.596c0-9.543 3.55-17.663 10.67-24.391 7.12-6.729 15.71-10.093 25.81-10.093h99.51c10.09 0 18.68 3.364 25.8 10.093 7.12 6.728 10.68 14.848 10.68 24.391v17.825zM2046.16 0h53.76v205.385h-53.76v-51.338h-173.4v51.338H1819V0h53.76v103.194h173.4V0zm462.59 103.938l173.43 101.447h-94.69L2435 116.263l-2.36-1.585-1.64-1.714-1.3-1.812-1.2-2.653-.34-1.844-.14-3.17.14-1.455.89-2.847.89-1.424 1.98-2.393 2.13-1.877 1.71-1.197 2.7-1.973 5.54-3.526 143.01-83.946h95.1l-173.33 101.091h-.03z"/></mask><path fill-rule="evenodd" clip-rule="evenodd" d="M2918.06 16.078c-16.6-9.09-34.6-13.652-54.07-13.652h-117.37c-29.71 0-55.03 9.931-76.01 29.762-20.97 19.83-31.48 43.8-31.48 71.847 0 28.047 10.51 52.018 31.48 71.848 20.98 19.83 46.34 29.761 76.01 29.761h117.37c19.44 0 37.47-4.561 54.07-13.651s29.64-21.448 39.15-37.008c9.51-15.592 14.27-32.575 14.27-50.95 0-18.374-4.76-35.358-14.27-50.95-9.51-15.592-22.59-27.917-39.15-37.007zm-17.52 122.215c-10.03 9.478-22.21 14.234-36.55 14.234h-117.37c-14.14 0-26.22-4.756-36.24-14.234-10.03-9.478-15.06-20.898-15.06-34.258 0-13.36 5.03-24.78 15.06-34.258 10.02-9.478 22.1-14.233 36.24-14.233h117.37c14.34 0 26.52 4.755 36.55 14.233 10.03 9.479 15.06 20.898 15.06 34.258 0 13.36-5.03 24.78-15.06 34.258zM3538 2.459v50.53h-112.72V206h-53.76V52.956H3259.1V2.459H3538zm-307.57 195.81c7.11 3.817 11.53 6.243 13.07 7.084h-94.35c-3.18-1.844-14.27-8.023-24.05-13.619-22.52-12.81-67.35-38.204-90.18-51.662-22.82-13.457-23.61-15.042-24.19-16.854-.58-1.811-.99-3.914-.89-5.92.07-2.005.62-3.946 1.47-5.499.82-1.553 1.92-2.75 3.22-3.882 1.3-1.132 2.8-2.167 4.04-2.717 1.26-.55 2.29-.647 2.8-.712.52-.065.52-.162 25.53-.194 25.02-.032 75.05-.032 100.16-.097 25.09-.065 25.26-.227 25.33-.259.07-.032.07.032 1.2-.291a39.204 39.204 0 005.71-2.232c2.4-1.165 5-2.718 7.46-4.788 2.46-2.102 4.83-4.69 6.47-7.699 1.61-3.008 2.46-6.437 2.84-9.963.34-3.527.2-7.182-.86-10.773-1.06-3.558-3.04-7.084-5.3-9.899a30.679 30.679 0 00-7.32-6.534c-2.5-1.585-7.94-4.044-10.3-4.206-2.37-.161-3.87-.032-46.31 0-42.43.033-142.63-.323-156.76-.582-.34 0-3.59-5.046-3.9-5.467-2.33-3.138-7.32-9.705-11.77-14.395-4.45-4.691-8.52-8.217-14.48-12.293-5.95-4.076-16.9-10.222-20.5-11.937l-.1-.065h254.09c7.87.389 15.5 1.585 24.26 4.82 9.58 3.527 28.78 16.725 37.16 35.196 2.74 6.017 4.56 10.158 5.75 17.598 1.2 7.44 2.06 16.919.38 26.462-3.42 19.636-11.19 31.735-23.78 42.798-2.67 2.329-5.99 4.497-9.24 6.664-5.27 3.526-11.47 5.758-17.15 7.473-5.71 1.714-11.22 2.523-18.75 3.17-7.56.647-17.14 1.067-22.35 1.262-8.14.291-8.45-1.036-.61 3.784a816.385 816.385 0 0033.74 19.992c16.46 9.22 41.37 22.418 48.49 26.236h-.03zM2323.07.291h-99.51c-24.95 0-46.2 8.314-63.83 24.974-17.62 16.66-26.41 36.748-26.41 60.331v119.789h53.76v-51.144h172.47v51.144h53.76V85.596c0-23.583-8.8-43.671-26.42-60.331C2369.3 8.605 2348.02.29 2323.07.29zm36.48 103.13h-172.47V85.596c0-9.543 3.55-17.663 10.67-24.391 7.12-6.729 15.71-10.093 25.81-10.093h99.51c10.09 0 18.68 3.364 25.8 10.093 7.12 6.728 10.68 14.848 10.68 24.391v17.825zM2046.16 0h53.76v205.385h-53.76v-51.338h-173.4v51.338H1819V0h53.76v103.194h173.4V0zm462.59 103.938l173.43 101.447h-94.69L2435 116.263l-2.36-1.585-1.64-1.714-1.3-1.812-1.2-2.653-.34-1.844-.14-3.17.14-1.455.89-2.847.89-1.424 1.98-2.393 2.13-1.877 1.71-1.197 2.7-1.973 5.54-3.526 143.01-83.946h95.1l-173.33 101.091h-.03z" stroke="#fff" stroke-opacity=".2" stroke-width="2" mask="url(#path-2-inside-2_283_2525)"/></svg>