<svg width="75" height="74" viewBox="0 0 75 74" fill="none" xmlns="http://www.w3.org/2000/svg"><path d="M16.963 24.661a23.584 23.584 0 00-1.545 3.079 25.002 25.002 0 00-1.095 3.266h-.025L5.6 32.25v9.41l8.698 1.252a24.15 24.15 0 002.621 6.357l-.018.012-5.263 7.033 6.652 6.651 7.033-5.262a24.403 24.403 0 006.345 2.64v.026l1.246 8.697h9.411l1.252-8.697a25.078 25.078 0 003.272-1.09 24.032 24.032 0 003.085-1.538l.013.018 7.033 5.263 6.652-6.652-5.263-7.032a23.974 23.974 0 001.546-3.079 24.715 24.715 0 001.095-3.266h.025l8.698-1.245v-9.41l-8.698-1.252a24.13 24.13 0 00-2.622-6.357l.019-.012 5.262-7.033-6.651-6.651-7.034 5.262a24.403 24.403 0 00-6.345-2.64v-.026L42.42 4.934h-9.411l-.557 3.855m-.701 4.849a24.15 24.15 0 00-6.358 2.621l-.012-.018-7.034-5.262-6.652 6.65 2.24 3.029" stroke="#6C757D" stroke-width="2" stroke-linecap="round" stroke-linejoin="round"/><path d="M42.813 50.567v-.174c0-1.855.946-3.557 2.456-4.658C48.142 43.639 50 40.289 50 36.51c0-4.778-2.974-8.876-7.207-10.611v8.643c0 2.456-2.035 4.451-4.54 4.451-2.504 0-4.54-1.995-4.54-4.451v-8.616c-4.199 1.748-7.146 5.826-7.146 10.584 0 3.765 1.845 7.101 4.697 9.197 1.504 1.108 2.443 2.803 2.443 4.645v.214" stroke="#6B3D90" stroke-width="2" stroke-linecap="round" stroke-linejoin="round"/><path d="M27.717 51.676C23.124 48.22 20.4 42.71 20.4 36.862 20.4 26.79 28.473 18.5 38.283 18.5c9.81 0 17.884 8.29 17.884 18.362 0 5.92-2.788 11.49-7.48 14.938" stroke="#6C757D" stroke-width="2" stroke-linecap="round" stroke-linejoin="round"/></svg>