<svg width="75" height="74" viewBox="0 0 75 74" fill="none" xmlns="http://www.w3.org/2000/svg"><path d="M53.973 13.567h3.41c1.866 0 3.384 1.5 3.384 3.36v48.78c0 1.853-1.512 3.36-3.385 3.36H17.284c-1.866 0-3.384-1.501-3.384-3.36v-48.78c0-1.854 1.511-3.36 3.384-3.36h3.41m5.623-3.281v7.041h22.069v-7.041h-5.667c0-2.935-2.436-5.353-5.392-5.353-2.956 0-5.392 2.418-5.392 5.353h-5.624.006z" stroke="#6C757D" stroke-width="2" stroke-linecap="round" stroke-linejoin="round"/><path d="M35.17 34.737v4.909H21.305V26.129h8.78m-4.713 4.486l3.857 3.965 8.134-9.913m5.94 5.216H54.6m-11.297 5.9h6.529M30.079 48.151h-8.78v13.516h13.864v-4.909m-9.796-4.122l3.856 3.965 8.135-9.913m5.94 5.216h11.296m-11.297 5.9h6.529" stroke="#6B3D90" stroke-width="2" stroke-linecap="round" stroke-linejoin="round"/></svg>