<svg width="92" height="40" viewBox="0 0 92 40" fill="none" xmlns="http://www.w3.org/2000/svg"><g clip-path="url(#clip0_199_3427)"><path d="M91.691 0H.581v40h91.11V0z" fill="#005BFF"/><path d="M40.93 23.366h-5.458l6.968-9.21a.467.467 0 00-.092-.649.46.46 0 00-.279-.092H31.988c-.886 0-1.611.725-1.611 1.61 0 .884.725 1.609 1.61 1.609h4.531l-6.994 9.218a.46.46 0 00.085.649.406.406 0 00.287.093h11.026a1.613 1.613 0 000-3.22v-.008h.008zm35.23-9.951c-.886 0-1.611.725-1.611 1.61v5.4l-8.707-6.9a.459.459 0 00-.75.362v11.097a1.61 1.61 0 003.223 0v-5.401l8.705 6.91a.47.47 0 00.76-.363V15.024a1.623 1.623 0 00-1.62-1.61zM53.12 23.67c-3.686 0-6.436-1.938-6.436-3.674s2.758-3.674 6.437-3.674c3.678 0 6.436 1.938 6.436 3.674s-2.75 3.674-6.436 3.674zm0-10.567c-5.331 0-9.659 3.084-9.659 6.893 0 3.809 4.328 6.893 9.66 6.893 5.331 0 9.66-3.084 9.66-6.893-.01-3.809-4.329-6.893-9.66-6.893zM21.4 23.678a3.681 3.681 0 01-3.686-3.674 3.681 3.681 0 013.678-3.682 3.681 3.681 0 013.687 3.674v.008c0 2.023-1.645 3.666-3.678 3.674zm0-10.575a6.907 6.907 0 00-6.909 6.893c0 3.809 3.088 6.893 6.901 6.901 3.813 0 6.9-3.084 6.91-6.893v-.008a6.894 6.894 0 00-6.901-6.893z" fill="#fff"/></g><defs><clipPath id="clip0_199_3427"><path fill="#fff" transform="translate(.58)" d="M0 0h91.111v40H0z"/></clipPath></defs></svg>