<svg width="147" height="40" viewBox="0 0 147 40" fill="none" xmlns="http://www.w3.org/2000/svg"><g clip-path="url(#clip0_199_3430)"><path d="M146.025 0H.691v40h145.334V0z" fill="#CD0AAE"/><path fill-rule="evenodd" clip-rule="evenodd" d="M63.497 16.087c-1.425 0-2.71.422-3.809 1.143v-6.599h-3.036v12.17c0 3.705 3.072 6.683 6.83 6.683 3.76 0 6.864-2.964 6.864-6.715 0-3.75-3.037-6.682-6.849-6.682zm-15.773.202c-3.381.335-6.146 3.199-6.146 6.6 0 3.602 3.141 6.617 6.814 6.617 3.672 0 6.813-3.015 6.813-6.617 0-1.533-.567-2.947-1.475-4.058l-6.727-8.182h-3.931l4.652 5.64zm-23.513 7.375L21.43 16.56h-2.128l-2.797 7.104-2.796-7.104h-3.313l4.892 12.492h2.129l2.936-7.44 2.951 7.44h2.129l4.875-12.492H27.01l-2.796 7.104h-.004zm54.37-7.559c-3.794 0-6.863 2.896-6.863 6.55 0 3.652 2.692 6.85 6.694 6.85 2.402 0 4.34-1.128 5.715-3.064l-2.369-1.886c-.685 1.211-2.007 1.918-3.328 1.918-1.715 0-3.399-1.194-3.535-2.946h9.936v-.909c0-3.823-2.574-6.513-6.246-6.513h-.004zm38.787 0c-3.794 0-6.849 2.896-6.849 6.715 0 3.584 2.692 6.682 6.677 6.682 2.401 0 4.34-1.128 5.715-3.065l-2.093-1.735c-.74 1.111-2.079 1.767-3.672 1.767-1.594 0-3.314-1.193-3.45-2.946h9.904v-1.042c0-3.686-2.556-6.38-6.228-6.38l-.004.004zm10.64 4.108c0-.776 1.081-1.396 2.488-1.396s2.968.689 3.981 1.8l1.834-2.204c-1.752-1.514-3.518-2.304-5.733-2.304-2.764 0-5.61 1.244-5.61 4.107 0 3.52 3.087 3.772 5.61 3.974 1.407.101 2.66.202 2.66 1.111 0 .977-1.425 1.432-2.678 1.432a5.482 5.482 0 01-4.189-1.97l-1.956 2.038c1.561 1.868 3.826 2.694 6.041 2.694 2.782 0 5.819-1.295 5.819-4.259 0-3.35-3.123-3.671-5.524-3.905-1.512-.152-2.747-.285-2.747-1.111l.004-.007zm-38.564-.808V16.56h-3.037v12.473h3.037v-5.268c.412-2.947 2.796-4.126 5.56-4.126v-3.08h-.309c-2.333 0-4.034.84-5.251 2.846zm9.645 0V16.56h-3.037v12.473h3.037v-5.268c.413-3.318 3.332-4.126 5.561-4.126v-3.08h-.327c-2.301 0-4.035.826-5.234 2.846zm-62.113 9.628h3.037V10.65h-3.037v18.384zm11.43-2.524c-2.093 0-3.794-1.648-3.794-3.704 0-2.055 1.698-3.721 3.776-3.721 2.079 0 3.827 1.648 3.827 3.721 0 2.074-1.716 3.704-3.809 3.704zm15.07 0c-2.06 0-3.795-1.616-3.795-3.721 0-2.107 1.63-3.704 3.81-3.704 2.178 0 3.808 1.666 3.808 3.704 0 2.037-1.734 3.721-3.827 3.721h.004zm-31.751 2.524h3.036V16.56h-3.036v12.473zm74.228 0h3.037V16.56h-3.037v12.473zM33.207 10.498a2.278 2.278 0 00-2.265 2.29c0 1.28 1.08 2.17 2.265 2.17 1.321 0 2.316-1.078 2.316-2.239 0-1.161-1.049-2.221-2.316-2.221zm74.264 0c-1.235 0-2.283 1.01-2.283 2.272 0 1.262 1.013 2.17 2.334 2.17 1.321 0 2.232-.89 2.232-2.12s-1.03-2.322-2.283-2.322zm6.591 10.537c.499-1.23 1.579-1.951 3.177-1.951 1.597 0 2.556.757 2.969 1.95h-6.146zm-38.805 0c.513-1.23 1.58-1.951 3.16-1.951 1.579 0 2.609.757 3.018 1.95h-6.178z" fill="#FEFEFE"/></g><defs><clipPath id="clip0_199_3430"><path fill="#fff" transform="translate(.691)" d="M0 0h145.333v40H0z"/></clipPath></defs></svg>