<svg width="204" height="30" viewBox="0 0 204 30" fill="none" xmlns="http://www.w3.org/2000/svg"><g clip-path="url(#clip0_199_3433)" fill-rule="evenodd" clip-rule="evenodd"><path d="M30.024 15c0 8.28-6.706 15-15 15-8.293 0-15-6.707-15-15s6.707-15 15-15c8.294 0 15 6.72 15 15z" fill="#FF5226"/><path d="M17.451 24.453V8.387h-1.88c-1.36 0-2.386.28-3.093.866-.694.56-1.053 1.294-1.053 2.227 0 .693.12 1.293.373 1.787.253.493.613.946 1.08 1.36.48.413 1.066.866 1.787 1.36l1.786 1.2-5.253 7.266h-3.96l5-6.8 2.347 2.094-1.854-1.174c-.933-.6-1.813-1.28-2.653-2.013-.734-.653-1.307-1.373-1.694-2.16-.386-.787-.586-1.693-.586-2.747 0-1.8.653-3.266 1.946-4.386 1.32-1.134 3.24-1.694 5.774-1.694h5.587V24.44h-3.667l.013.013z" fill="#fff"/><path d="M47.584 30c-8.28 0-15-6.693-15-14.973 0-8.28 6.72-15.027 15-15.027 8.28 0 15 6.747 15 15.027S55.852 30 47.584 30z" fill="#FF5226"/><path d="M45.264 2.027l-16.746 26.12h7.666l9.68-15.054-.24-.106-2.68 10.773 5.667 1 5.84-7.333-.32-.16-1.96 8.333 12.36-2.36-2.533-4.16-4.454 1.027.534.6 2.066-8.694-4.826-3.226-6.334 7.96.32.146 2.6-10.426-6.64-4.44z" fill="#FD0"/><path d="M45.264 2.027l-16.746 26.12h7.666l9.68-15.054-.24-.106-2.68 10.773 5.667 1 5.84-7.333-.32-.16-1.96 8.333 4.96-.96 3.013-12.627-4.826-3.226-6.334 7.96.32.146 2.6-10.426-6.64-4.44z" fill="#FD0"/><path d="M68.331 24.453l9.32-18.866h7.107L86.21 17.08l7.2-11.493h7.04v18.866h-6.893V14.32L87.17 24.453h-6.893l-1.32-10.213-5.067 10.213h-5.56zm53.28-3.733c0 .64 0 1.267.027 1.88.026.613.053 1.227.12 1.813h-6.387a6.125 6.125 0 01-.627-2.213c-.653.787-1.493 1.427-2.506 1.947-.987.493-2.4.746-4.24.746-1.84 0-3.334-.44-4.454-1.293-1.093-.867-1.64-2.013-1.64-3.467 0-1.333.374-2.36 1.147-3.093.787-.733 2-1.253 3.64-1.547 1.653-.306 3.76-.466 6.333-.466h1.6v-.347c0-.653-.28-1.16-.826-1.507-.56-.346-1.6-.533-3.12-.533s-2.907.2-4.2.587c-1.28.373-2.32.733-3.12 1.106V10.2c.906-.333 2.12-.667 3.64-.987 1.546-.346 3.306-.533 5.28-.533 1.973 0 3.68.187 5.066.56 1.374.347 2.427.96 3.147 1.827.72.84 1.08 2.013 1.08 3.52v6.12l.04.013zm2.093-11.547h6.387l.373 2.627c.787-1.027 1.72-1.787 2.814-2.253 1.093-.467 2.346-.707 3.773-.707 1.6 0 3.04.28 4.32.867a6.741 6.741 0 013.027 2.626c.733 1.174 1.106 2.654 1.106 4.454 0 1.8-.373 3.28-1.106 4.48-.72 1.173-1.734 2.053-3.027 2.653-1.293.587-2.787.893-4.453.893a9.551 9.551 0 01-3.494-.653c-1.066-.453-2-1.16-2.786-2.133v6.426h-6.947V9.16l.013.013zm41.947 7.6c0-1.52.413-2.88 1.24-4.08.84-1.2 2.04-2.133 3.587-2.813 1.56-.707 3.4-1.053 5.533-1.053 2.133 0 4.04.373 5.533 1.146 1.494.76 2.547 1.84 3.147 3.24.613 1.4.707 3.054.253 4.974h-12.2c.24.88.787 1.546 1.64 2 .867.426 2.134.653 3.827.653 1.173 0 2.267-.107 3.28-.307.947-.213 1.88-.466 2.813-.773v3.68c-.88.413-1.866.747-2.96.987-1.066.253-2.48.373-4.226.373-3.854 0-6.72-.707-8.614-2.133-1.866-1.44-2.8-3.414-2.8-5.907l-.053.013zm19.853-7.6h17.64v3.96h-5.493V24.44h-6.947V13.133h-5.186v-3.96h-.014zm-38.666 0v15.254h6.946v-6.734l5.44 6.734h8.4l-7.373-8.894 6.12-6.36h-5.987l-6.586 6.92v-6.92h-6.96zm29.186 3.12c-.946 0-1.693.28-2.253.827-.56.533-.92 1.227-1.08 2.067h6.12c-.027-.854-.253-1.534-.68-2.067-.427-.547-1.133-.827-2.093-.827h-.014zm-37.613 4.48c0-1.24-.347-2.213-1.027-2.933-.666-.747-1.613-1.12-2.84-1.12-1.133 0-2.08.347-2.84 1.053-.76.68-1.146 1.68-1.146 3s.373 2.334 1.12 3.054c.76.693 1.72 1.053 2.866 1.053 1.28 0 2.227-.373 2.88-1.12.654-.733.987-1.733.987-3v.013zm-23.76 1.08h-1.573c-1.507 0-2.587.12-3.24.374-.64.24-.947.72-.947 1.413 0 .6.2 1.04.613 1.333.44.267.947.4 1.547.4.907 0 1.64-.16 2.213-.493.6-.36 1.067-.76 1.387-1.213V17.84v.013z" fill="#000"/></g><defs><clipPath id="clip0_199_3433"><path fill="#fff" transform="translate(.024)" d="M0 0h203.12v30H0z"/></clipPath></defs></svg>