<?xml version="1.0" encoding="utf-8"?><svg width="1375" height="175" fill="none" xmlns="http://www.w3.org/2000/svg" viewBox="0 0 1375 175"><mask id="fa" style="mask-type:alpha" maskUnits="userSpaceOnUse" x="0" y="0" width="1375" height="175"><g clip-path="url(#fclip0_283_2508)" fill="#6B3D90"><path fill-rule="evenodd" clip-rule="evenodd" d="M1375 0v42.932h-90.17V172.94h-43V42.905h-89.92V0H1375z"/><path d="M1139.43 172.087c-1.23-.715-4.76-2.776-10.45-6.02h.02c-5.69-3.243-25.62-14.457-38.78-22.29a645.256 645.256 0 01-26.99-16.987c-6.27-4.095-6.02-2.968.49-3.215 4.16-.165 11.83-.523 17.87-1.072 6.03-.55 10.43-1.237 15-2.694 4.55-1.457 9.5-3.353 13.72-6.349 2.6-1.841 5.25-3.683 7.39-5.662 10.07-9.4 16.29-19.68 19.02-36.363 1.34-8.108.66-16.162-.3-22.483-.96-6.322-2.41-9.84-4.6-14.953-6.7-15.694-22.06-26.908-29.72-29.904-7.01-2.748-13.11-3.765-19.41-4.095H879.449l.082.055c2.874 1.457 11.634 6.679 16.396 10.142 4.763 3.463 8.021 6.46 11.579 10.445 3.558 3.985 7.555 9.564 9.416 12.23.246.358 2.847 4.646 3.121 4.646 11.304.22 91.447.522 125.397.494 33.94-.027 35.14-.137 37.03 0 1.89.138 6.24 2.227 8.24 3.574 2 1.346 4.02 3.16 5.86 5.552 1.8 2.39 3.39 5.387 4.24 8.41.85 3.051.96 6.157.68 9.153-.3 2.996-.98 5.91-2.27 8.465-1.31 2.556-3.2 4.755-5.17 6.542-1.97 1.759-4.05 3.078-5.97 4.068a29.75 29.75 0 01-4.57 1.896c-.9.275-.9.22-.96.248-.05.029-.32.165-20.25.22-20.09.054-60.11.055-80.122.082-20.009.027-20.009.11-20.42.165-.41.055-1.232.137-2.244.605-.986.467-2.19 1.346-3.23 2.308-1.041.962-1.916 1.98-2.573 3.299-.685 1.319-1.123 2.968-1.177 4.672-.083 1.704.246 3.491.711 5.03.466 1.539 1.095 2.886 19.353 14.32 18.257 11.434 54.112 33.01 72.122 43.894 7.83 4.755 16.7 10.005 19.25 11.572h75.46z"/><path fill-rule="evenodd" clip-rule="evenodd" d="M879.121 11.599C865.845 3.875 851.447 0 835.872 0h-93.887c-23.76 0-44.015 8.438-60.795 25.287-16.779 16.848-25.182 37.215-25.182 61.045s8.403 44.197 25.182 61.045c16.78 16.849 37.063 25.287 60.795 25.287h93.887c15.548 0 29.973-3.876 43.249-11.599 13.275-7.724 23.704-18.223 31.314-31.443 7.609-13.248 11.414-27.678 11.414-43.29 0-15.612-3.805-30.042-11.414-43.29-7.61-13.248-18.066-23.72-31.314-31.443zm-43.249 115.934c11.469 0 21.214-4.041 29.234-12.094 8.02-8.053 12.044-17.756 12.044-29.107 0-11.352-4.024-21.054-12.044-29.107S847.341 45.13 835.872 45.13h-93.887c-11.305 0-20.968 4.04-28.988 12.094-8.02 8.053-12.044 17.755-12.044 29.107 0 11.351 4.024 21.054 12.044 29.107s17.683 12.094 28.988 12.094h93.887z"/><path d="M690.443 172.087L551.719 85.892h.027L690.388 0H614.32L499.93 71.325l-4.434 2.996-2.162 1.676-1.369 1.017-1.697 1.594-1.588 2.034-.711 1.21-.712 2.418-.11 1.237.11 2.694.274 1.567.958 2.253 1.04 1.54 1.314 1.456 1.888 1.347 121.972 75.723h75.74z"/><path fill-rule="evenodd" clip-rule="evenodd" d="M403.196 0h-79.599c-19.954 0-36.953 7.064-51.049 21.219-14.097 14.155-21.132 31.223-21.132 51.26v101.779h43.002v-43.455h137.957v43.455h43.002V72.479c0-20.037-7.034-37.105-21.131-51.26C440.176 7.064 423.151 0 403.196 0zM294.418 87.624h137.957V72.479c0-8.108-2.847-15.007-8.54-20.724-5.693-5.717-12.564-8.575-20.639-8.575h-79.599c-8.075 0-14.945 2.858-20.639 8.575-5.693 5.717-8.54 12.616-8.54 20.724v15.145z"/><path d="M224.7 0h-43.002v87.679H43.002V0H0v174.505h43.002v-43.619h138.696v43.619H224.7V0z"/></g></mask><g mask="url(#fa)"><rect x="-18" y="-304" width="1411" height="783" rx="70" fill="#6B3D90"/><rect x="702" y="46" width="174" height="81" rx="40.5" fill="#A2C617"/></g><defs><clipPath id="fclip0_283_2508"><path fill="#fff" d="M0 0h1375v175H0z"/></clipPath></defs></svg>