<?xml version="1.0" encoding="utf-8"?><svg width="50" height="50" fill="none" xmlns="http://www.w3.org/2000/svg" viewBox="0 0 50 50"><path d="M8.333 10.833v19.908c0 9.194 7.711 16.759 17.083 16.759 9.372 0 17.084-7.565 17.084-16.76 0-9.193-7.712-16.758-17.084-16.758-5.153 0-10.039 2.287-13.279 6.218m-.403 10.54V10.834m27.36 0v9.992m3.402-9.992v19.912m-3.402 0c0 7.41-6.123 13.422-13.681 13.422-7.559 0-13.683-6.008-13.683-13.422 0-7.415 6.124-13.423 13.683-13.423 7.558 0 13.681 6.008 13.681 13.423z" stroke="#6C757D" stroke-width="2" stroke-linecap="round" stroke-linejoin="round"/><path d="M11.685 6.431l-.389-3.098H8.702l-.431 3.098m27.324 24.39c0 5.528-4.552 10.012-10.163 10.012-5.611 0-10.163-4.484-10.163-10.012 0-5.528 4.552-10.012 10.163-10.012 5.611 0 10.163 4.484 10.163 10.012zM12.456 6.431H7.5v4.294h4.956V6.431zm30.877 1.443h-4.856v2.851h4.856v-2.85z" stroke="#6B3D90" stroke-width="2" stroke-linecap="round" stroke-linejoin="round"/></svg>