<?xml version="1.0" encoding="utf-8"?><svg width="50" height="50" fill="none" xmlns="http://www.w3.org/2000/svg" viewBox="0 0 50 50"><path d="M26.25 28.333a2.083 2.083 0 100-4.166 2.083 2.083 0 000 4.166z" stroke="#6B3D90" stroke-width="2" stroke-linecap="round" stroke-linejoin="round"/><path d="M27.591 6.667c4.95.317 9.616 2.388 13.126 5.827 7.933 7.774 7.933 20.568 0 28.342-7.934 7.774-20.99 7.774-28.924 0-3.564-3.492-5.687-8.155-5.96-13.086m6.339-1.037c-.495.034-.98.138-1.444.308-.464.17-.901.402-1.297.693m6.902 8.747a5.067 5.067 0 00-1.218 2.606m11.193 1.401a5.062 5.062 0 001.02 2.686m8.927-6.763c.375.317.792.582 1.242.782.451.201.929.342 1.417.412m1.43-10.969c.495-.033.98-.137 1.444-.307a5.124 5.124 0 001.298-.693m-6.903-8.747a5.065 5.065 0 001.219-2.606m-11.193-1.401a4.917 4.917 0 00-.314-1.415 4.905 4.905 0 00-.294-.636m8.78 23.817a11.104 11.104 0 000-15.93c-4.489-4.398-11.767-4.398-16.256 0a11.104 11.104 0 000 15.93c4.49 4.399 11.767 4.399 16.256 0zm-2.29-2.245a7.973 7.973 0 000-11.436c-3.223-3.158-8.45-3.158-11.672 0a7.973 7.973 0 000 11.436c3.223 3.158 8.449 3.158 11.671 0z" stroke="#6C757D" stroke-width="2" stroke-linecap="round" stroke-linejoin="round"/><path d="M21.992 24.402a.626.626 0 010 .916.701.701 0 01-.96 0 .626.626 0 010-.916.701.701 0 01.96 0zm3.816-3.379a.626.626 0 000 .916.701.701 0 00.96 0 .626.626 0 000-.916.701.701 0 00-.96 0zm4.7 3.3a.626.626 0 000 .916.701.701 0 00.96 0 .626.626 0 000-.915.701.701 0 00-.96 0zm-1.74 5.402a.626.626 0 000 .915.701.701 0 00.96 0 .626.626 0 000-.915.701.701 0 00-.96 0zm-5.994.003a.626.626 0 000 .915.701.701 0 00.96 0 .626.626 0 000-.915.701.701 0 00-.96 0z" fill="#6B3D90"/><path d="M7.042 21.228a.774.774 0 010 1.054.684.684 0 01-1.002 0 .774.774 0 010-1.054.684.684 0 011.002 0zM20.457 6.052a.774.774 0 000 1.054c.277.29.726.29 1.002 0a.774.774 0 000-1.054.684.684 0 00-1.002 0z" fill="#6C757D"/><path d="M11.448 13.958a20.03 20.03 0 017.72-5.625M7.113 16.54a1.547 1.547 0 000 2.176c.597.603 1.565.6 2.165 0 .6-.6.597-1.573 0-2.176a1.525 1.525 0 00-2.165 0z" stroke="#6C757D" stroke-width="2" stroke-linecap="round" stroke-linejoin="round"/><path d="M3.333 23.127l.065-7.403L15.83 3.398l7.287-.065a1.032 1.032 0 011.05 1.04l-.042 4.507L8.748 24.126l-4.366.04a1.032 1.032 0 01-1.049-1.04z" stroke="#6B3D90" stroke-width="2" stroke-linecap="round" stroke-linejoin="round"/></svg>