<?xml version="1.0" encoding="utf-8"?><svg width="50" height="50" fill="none" xmlns="http://www.w3.org/2000/svg" viewBox="0 0 50 50"><path d="M6.789 33.05a20.006 20.006 0 01-.956-5.11M27.591 6.667c4.95.32 9.616 2.41 13.125 5.878 5.78 5.714 7.35 14.12 4.707 21.294M32.09 32.611a8.094 8.094 0 000-11.538c-3.222-3.186-8.449-3.186-11.67 0a8.094 8.094 0 000 11.538c3.221 3.186 8.448 3.186 11.67 0z" stroke="#6C757D" stroke-width="2" stroke-linecap="round" stroke-linejoin="round"/><path d="M21.992 24.7a.718.718 0 010 .991.662.662 0 01-.96 0 .718.718 0 010-.992.662.662 0 01.96 0zm3.816-3.661a.718.718 0 000 .992.662.662 0 00.96 0 .718.718 0 000-.992.663.663 0 00-.96 0zm4.7 3.575a.718.718 0 000 .993.663.663 0 00.96 0 .718.718 0 000-.992.662.662 0 00-.96 0zm-1.74 5.851a.718.718 0 000 .992.662.662 0 00.96 0 .718.718 0 000-.992.663.663 0 00-.96 0zm-5.994.004a.718.718 0 000 .992.663.663 0 00.96 0 .718.718 0 000-.992.662.662 0 00-.96 0zM7.042 21.227a.774.774 0 010 1.055.684.684 0 01-1.002 0 .774.774 0 010-1.055.684.684 0 011.002 0zM20.457 6.051a.774.774 0 000 1.055c.277.29.726.29 1.002 0a.774.774 0 000-1.055.684.684 0 00-1.002 0z" fill="#6B3D90"/><path d="M11.448 13.958a20.03 20.03 0 017.72-5.625M7.113 16.54a1.547 1.547 0 000 2.176c.597.603 1.565.6 2.165 0 .6-.6.597-1.573 0-2.176a1.525 1.525 0 00-2.165 0z" stroke="#6C757D" stroke-width="2" stroke-linecap="round" stroke-linejoin="round"/><path d="M20.252 43.093h13.956c.944 0 1.81.47 2.37 1.22a5.842 5.842 0 004.69 2.35 5.85 5.85 0 005.398-3.58H42.27a2.261 2.261 0 01-2.264-2.256 2.261 2.261 0 012.264-2.255h4.383a5.848 5.848 0 00-5.384-3.55 5.839 5.839 0 00-4.678 2.333c-.564.747-1.426 1.214-2.363 1.214h-.108m-18.243 4.55h-.11c-.936 0-1.802.464-2.362 1.215a5.839 5.839 0 01-4.678 2.333 5.852 5.852 0 01-5.384-3.55h4.383c1.25 0 2.264-1.012 2.264-2.256a2.261 2.261 0 00-2.264-2.255H3.333a5.843 5.843 0 015.398-3.58c1.921 0 3.625.922 4.691 2.35.564.753 1.43 1.22 2.37 1.22h18.436m-9.478-10.54a2.269 2.269 0 010-3.218 2.291 2.291 0 013.232 0c.893.889.893 2.33 0 3.218a2.29 2.29 0 01-3.232 0zM4.375 24.125l4.339-.04 15.28-15.216.04-4.497a1.028 1.028 0 00-1.042-1.038l-7.241.065-12.353 12.3-.065 7.388a1.028 1.028 0 001.042 1.038z" stroke="#6B3D90" stroke-width="2" stroke-linecap="round" stroke-linejoin="round"/></svg>