<?xml version="1.0" encoding="utf-8"?><svg width="50" height="50" fill="none" xmlns="http://www.w3.org/2000/svg" viewBox="0 0 50 50"><path d="M11.159 29.672a1.732 1.732 0 01-2.448 0 1.732 1.732 0 012.448-2.448c.231.231.254.148.327.441m18.281-16.62a1.732 1.732 0 10-2.275-2.602 1.732 1.732 0 00.804 2.903m10.54 5.918l5.727-5.599a1.495 1.495 0 000-2.114l-4.518-4.517-3.218-.58a18.114 18.114 0 00-9.702.914 6.873 6.873 0 00-4.341 5.453 2.218 2.218 0 01-1.648 1.838l-2.293.584a7.75 7.75 0 00-5.6 5.6l-.583 2.293a2.214 2.214 0 01-1.839 1.648 6.862 6.862 0 00-5.453 4.34 18.118 18.118 0 00-.913 9.703l.58 3.218 4.517 4.517c.583.584 1.53.584 2.113 0l5.6-5.725m-4.136 4.261l1.75 1.75a21.517 21.517 0 0011.05-2.12l.675-.33L34.5 34.5l7.897-7.897.33-.675a21.487 21.487 0 002.121-11.05l-1.75-1.75m-8.602 21.372l-5.676-5.68" stroke="#6C757D" stroke-width="2" stroke-linecap="round" stroke-linejoin="round"/><path d="M12.727 34.626l-2.48 2.48a.843.843 0 000 1.192l1.455 1.456a.843.843 0 001.191 0l2.489-2.489m21.883-21.883l2.489-2.489a.843.843 0 000-1.191l-1.456-1.456a.843.843 0 00-1.192 0l-2.48 2.481m-11.534 5.515c.068-1.662.44-2.99 1.79-4.337 3.522-3.521 9.538-3.03 12.362 1.48 1.838 2.936 1.484 6.667-.784 9.285-1.372 1.585-2.882 2.101-4.745 2.202-2.528.138-4.749 2.348-4.853 4.875-.069 1.662-.441 2.99-1.792 4.338-3.52 3.52-9.537 3.03-12.36-1.481-1.839-2.936-1.485-6.666.783-9.284 1.372-1.586 2.882-2.102 4.745-2.203 2.528-.137 4.749-2.348 4.854-4.875z" stroke="#6B3D90" stroke-width="2" stroke-linecap="round" stroke-linejoin="round"/></svg>