<svg width="3538" height="206" viewBox="0 0 3538 206" fill="none" xmlns="http://www.w3.org/2000/svg">
<mask id="path-1-inside-1_283_2525" fill="white">
<path fill-rule="evenodd" clip-rule="evenodd" d="M1099.06 16.0776C1082.46 6.98744 1064.46 2.42619 1044.99 2.42619H986.339H927.616C897.913 2.42619 872.589 12.3574 851.612 32.1875C830.635 52.0176 820.129 75.9884 820.129 104.035C820.129 132.082 830.635 156.053 851.612 175.883C872.589 195.713 897.947 205.644 927.616 205.644H984.456H1044.99C1064.43 205.644 1082.46 201.083 1099.06 191.993C1115.66 182.903 1128.7 170.545 1138.21 154.985C1147.72 139.393 1152.48 122.41 1152.48 104.035C1152.48 85.6608 1147.72 68.6775 1138.21 53.0851C1128.7 37.4928 1115.62 25.1677 1099.06 16.0776ZM1081.54 138.293C1071.51 147.771 1059.33 152.527 1044.99 152.527H927.616C913.483 152.527 901.403 147.771 891.376 138.293C881.35 128.815 876.319 117.395 876.319 104.035C876.319 90.6749 881.35 79.2557 891.376 69.7773C901.403 60.299 913.483 55.5437 927.616 55.5437H984.456H1044.99C1059.33 55.5437 1071.51 60.299 1081.54 69.7773C1091.57 79.2557 1096.6 90.6749 1096.6 104.035C1096.6 117.395 1091.57 128.815 1081.54 138.293ZM1719 2.45854V52.9881H1606.28V206H1552.52V52.9557H1440.1V2.45854H1718.97H1719ZM1411.43 198.269C1418.54 202.086 1422.96 204.512 1424.5 205.353H1330.15C1326.97 203.509 1315.88 197.33 1306.1 191.734C1283.58 178.924 1238.75 153.53 1215.92 140.072C1193.1 126.615 1192.31 125.03 1191.73 123.218C1191.15 121.407 1190.74 119.304 1190.84 117.298C1190.91 115.293 1191.46 113.352 1192.31 111.799C1193.13 110.246 1194.23 109.049 1195.53 107.917C1196.83 106.785 1198.33 105.75 1199.57 105.2C1200.83 104.65 1201.86 104.553 1202.37 104.488C1202.89 104.423 1202.89 104.326 1227.9 104.294C1252.92 104.262 1302.95 104.262 1328.06 104.197C1353.15 104.132 1353.32 103.97 1353.39 103.938C1353.46 103.906 1353.46 103.97 1354.59 103.647C1355.68 103.323 1357.91 102.579 1360.3 101.415C1362.7 100.25 1365.3 98.6975 1367.76 96.6272C1370.22 94.5245 1372.59 91.9366 1374.23 88.9281C1375.84 85.9196 1376.69 82.4906 1377.07 78.9645C1377.41 75.4384 1377.27 71.783 1376.21 68.1922C1375.15 64.6338 1373.17 61.1077 1370.91 58.2933C1368.62 55.479 1366.08 53.3439 1363.59 51.7588C1361.09 50.1737 1355.65 47.7151 1353.29 47.5534C1350.92 47.3916 1349.42 47.521 1306.98 47.5534C1264.55 47.5857 1164.35 47.2299 1150.22 46.9711C1149.88 46.9711 1146.63 41.9246 1146.32 41.5041C1143.99 38.3662 1139 31.7993 1134.55 27.1087C1130.1 22.418 1126.03 18.892 1120.07 14.816C1114.12 10.7399 1103.17 4.59359 1099.57 2.87908L1099.47 2.81438H1353.56C1361.43 3.20258 1369.06 4.3995 1377.82 7.63442C1387.4 11.1605 1406.6 24.359 1414.98 42.8304C1417.72 48.8474 1419.54 52.9881 1420.73 60.4284C1421.93 67.8687 1422.79 77.347 1421.11 86.8901C1417.69 106.526 1409.92 118.625 1397.33 129.688C1394.66 132.017 1391.34 134.185 1388.09 136.352C1382.82 139.878 1376.62 142.11 1370.94 143.825C1365.23 145.539 1359.72 146.348 1352.19 146.995C1344.63 147.642 1335.05 148.062 1329.84 148.257C1321.7 148.548 1321.39 147.221 1329.23 152.041C1335.05 155.665 1346.54 162.814 1362.97 172.033C1379.43 181.253 1404.34 194.451 1411.46 198.269H1411.43ZM504.068 0.291143H404.555C379.608 0.291143 358.357 8.6049 340.734 25.2648C323.11 41.9246 314.316 62.0135 314.316 85.5961V205.385H368.076V154.241H540.548V205.385H594.308V85.5961C594.308 62.0135 585.513 41.9246 567.89 25.2648C550.3 8.6049 529.015 0.291143 504.068 0.291143ZM540.548 103.421H368.076V85.5961C368.076 76.0531 371.635 67.9334 378.753 61.2048C385.871 54.4761 394.46 51.1118 404.555 51.1118H504.068C514.164 51.1118 522.753 54.4761 529.871 61.2048C536.989 67.9334 540.548 76.0531 540.548 85.5961V103.421ZM227.156 0H280.916V205.385H227.156V154.047H53.7605V205.385H0V0H53.7605V103.194H227.156V0ZM689.749 103.938L863.179 205.385H768.491L616.004 116.263L613.643 114.678L612 112.964L610.7 111.152L609.502 108.499L609.16 106.655L609.023 103.485L609.16 102.03L610.049 99.1828L610.939 97.7594L612.924 95.3656L615.046 93.4893L616.757 92.2924L619.46 90.3191L625.004 86.793L768.011 2.84673H863.11L689.783 103.938H689.749Z"/>
</mask>
<path fill-rule="evenodd" clip-rule="evenodd" d="M1099.06 16.0776C1082.46 6.98744 1064.46 2.42619 1044.99 2.42619H986.339H927.616C897.913 2.42619 872.589 12.3574 851.612 32.1875C830.635 52.0176 820.129 75.9884 820.129 104.035C820.129 132.082 830.635 156.053 851.612 175.883C872.589 195.713 897.947 205.644 927.616 205.644H984.456H1044.99C1064.43 205.644 1082.46 201.083 1099.06 191.993C1115.66 182.903 1128.7 170.545 1138.21 154.985C1147.72 139.393 1152.48 122.41 1152.48 104.035C1152.48 85.6608 1147.72 68.6775 1138.21 53.0851C1128.7 37.4928 1115.62 25.1677 1099.06 16.0776ZM1081.54 138.293C1071.51 147.771 1059.33 152.527 1044.99 152.527H927.616C913.483 152.527 901.403 147.771 891.376 138.293C881.35 128.815 876.319 117.395 876.319 104.035C876.319 90.6749 881.35 79.2557 891.376 69.7773C901.403 60.299 913.483 55.5437 927.616 55.5437H984.456H1044.99C1059.33 55.5437 1071.51 60.299 1081.54 69.7773C1091.57 79.2557 1096.6 90.6749 1096.6 104.035C1096.6 117.395 1091.57 128.815 1081.54 138.293ZM1719 2.45854V52.9881H1606.28V206H1552.52V52.9557H1440.1V2.45854H1718.97H1719ZM1411.43 198.269C1418.54 202.086 1422.96 204.512 1424.5 205.353H1330.15C1326.97 203.509 1315.88 197.33 1306.1 191.734C1283.58 178.924 1238.75 153.53 1215.92 140.072C1193.1 126.615 1192.31 125.03 1191.73 123.218C1191.15 121.407 1190.74 119.304 1190.84 117.298C1190.91 115.293 1191.46 113.352 1192.31 111.799C1193.13 110.246 1194.23 109.049 1195.53 107.917C1196.83 106.785 1198.33 105.75 1199.57 105.2C1200.83 104.65 1201.86 104.553 1202.37 104.488C1202.89 104.423 1202.89 104.326 1227.9 104.294C1252.92 104.262 1302.95 104.262 1328.06 104.197C1353.15 104.132 1353.32 103.97 1353.39 103.938C1353.46 103.906 1353.46 103.97 1354.59 103.647C1355.68 103.323 1357.91 102.579 1360.3 101.415C1362.7 100.25 1365.3 98.6975 1367.76 96.6272C1370.22 94.5245 1372.59 91.9366 1374.23 88.9281C1375.84 85.9196 1376.69 82.4906 1377.07 78.9645C1377.41 75.4384 1377.27 71.783 1376.21 68.1922C1375.15 64.6338 1373.17 61.1077 1370.91 58.2933C1368.62 55.479 1366.08 53.3439 1363.59 51.7588C1361.09 50.1737 1355.65 47.7151 1353.29 47.5534C1350.92 47.3916 1349.42 47.521 1306.98 47.5534C1264.55 47.5857 1164.35 47.2299 1150.22 46.9711C1149.88 46.9711 1146.63 41.9246 1146.32 41.5041C1143.99 38.3662 1139 31.7993 1134.55 27.1087C1130.1 22.418 1126.03 18.892 1120.07 14.816C1114.12 10.7399 1103.17 4.59359 1099.57 2.87908L1099.47 2.81438H1353.56C1361.43 3.20258 1369.06 4.3995 1377.82 7.63442C1387.4 11.1605 1406.6 24.359 1414.98 42.8304C1417.72 48.8474 1419.54 52.9881 1420.73 60.4284C1421.93 67.8687 1422.79 77.347 1421.11 86.8901C1417.69 106.526 1409.92 118.625 1397.33 129.688C1394.66 132.017 1391.34 134.185 1388.09 136.352C1382.82 139.878 1376.62 142.11 1370.94 143.825C1365.23 145.539 1359.72 146.348 1352.19 146.995C1344.63 147.642 1335.05 148.062 1329.84 148.257C1321.7 148.548 1321.39 147.221 1329.23 152.041C1335.05 155.665 1346.54 162.814 1362.97 172.033C1379.43 181.253 1404.34 194.451 1411.46 198.269H1411.43ZM504.068 0.291143H404.555C379.608 0.291143 358.357 8.6049 340.734 25.2648C323.11 41.9246 314.316 62.0135 314.316 85.5961V205.385H368.076V154.241H540.548V205.385H594.308V85.5961C594.308 62.0135 585.513 41.9246 567.89 25.2648C550.3 8.6049 529.015 0.291143 504.068 0.291143ZM540.548 103.421H368.076V85.5961C368.076 76.0531 371.635 67.9334 378.753 61.2048C385.871 54.4761 394.46 51.1118 404.555 51.1118H504.068C514.164 51.1118 522.753 54.4761 529.871 61.2048C536.989 67.9334 540.548 76.0531 540.548 85.5961V103.421ZM227.156 0H280.916V205.385H227.156V154.047H53.7605V205.385H0V0H53.7605V103.194H227.156V0ZM689.749 103.938L863.179 205.385H768.491L616.004 116.263L613.643 114.678L612 112.964L610.7 111.152L609.502 108.499L609.16 106.655L609.023 103.485L609.16 102.03L610.049 99.1828L610.939 97.7594L612.924 95.3656L615.046 93.4893L616.757 92.2924L619.46 90.3191L625.004 86.793L768.011 2.84673H863.11L689.783 103.938H689.749Z" stroke="white" stroke-opacity="0.2" stroke-width="2" mask="url(#path-1-inside-1_283_2525)"/>
<mask id="path-2-inside-2_283_2525" fill="white">
<path fill-rule="evenodd" clip-rule="evenodd" d="M2918.06 16.0776C2901.46 6.98744 2883.46 2.42619 2863.99 2.42619H2805.34H2746.62C2716.91 2.42619 2691.59 12.3574 2670.61 32.1875C2649.64 52.0176 2639.13 75.9884 2639.13 104.035C2639.13 132.082 2649.64 156.053 2670.61 175.883C2691.59 195.713 2716.95 205.644 2746.62 205.644H2803.46H2863.99C2883.43 205.644 2901.46 201.083 2918.06 191.993C2934.66 182.903 2947.7 170.545 2957.21 154.985C2966.72 139.393 2971.48 122.41 2971.48 104.035C2971.48 85.6608 2966.72 68.6775 2957.21 53.0851C2947.7 37.4928 2934.62 25.1677 2918.06 16.0776ZM2900.54 138.293C2890.51 147.771 2878.33 152.527 2863.99 152.527H2746.62C2732.48 152.527 2720.4 147.771 2710.38 138.293C2700.35 128.815 2695.32 117.395 2695.32 104.035C2695.32 90.6749 2700.35 79.2557 2710.38 69.7773C2720.4 60.299 2732.48 55.5437 2746.62 55.5437H2803.46H2863.99C2878.33 55.5437 2890.51 60.299 2900.54 69.7773C2910.57 79.2557 2915.6 90.6749 2915.6 104.035C2915.6 117.395 2910.57 128.815 2900.54 138.293ZM3538 2.45854V52.9881H3425.28V206H3371.52V52.9557H3259.1V2.45854H3537.97H3538ZM3230.43 198.269C3237.54 202.086 3241.96 204.512 3243.5 205.353H3149.15C3145.97 203.509 3134.88 197.33 3125.1 191.734C3102.58 178.924 3057.75 153.53 3034.92 140.072C3012.1 126.615 3011.31 125.03 3010.73 123.218C3010.15 121.407 3009.74 119.304 3009.84 117.298C3009.91 115.293 3010.46 113.352 3011.31 111.799C3012.13 110.246 3013.23 109.049 3014.53 107.917C3015.83 106.785 3017.33 105.75 3018.57 105.2C3019.83 104.65 3020.86 104.553 3021.37 104.488C3021.89 104.423 3021.89 104.326 3046.9 104.294C3071.92 104.262 3121.95 104.262 3147.06 104.197C3172.15 104.132 3172.32 103.97 3172.39 103.938C3172.46 103.906 3172.46 103.97 3173.59 103.647C3174.68 103.323 3176.91 102.579 3179.3 101.415C3181.7 100.25 3184.3 98.6975 3186.76 96.6272C3189.22 94.5245 3191.59 91.9366 3193.23 88.9281C3194.84 85.9196 3195.69 82.4906 3196.07 78.9645C3196.41 75.4384 3196.27 71.783 3195.21 68.1922C3194.15 64.6338 3192.17 61.1077 3189.91 58.2933C3187.62 55.479 3185.08 53.3439 3182.59 51.7588C3180.09 50.1737 3174.65 47.7151 3172.29 47.5534C3169.92 47.3916 3168.42 47.521 3125.98 47.5534C3083.55 47.5857 2983.35 47.2299 2969.22 46.9711C2968.88 46.9711 2965.63 41.9246 2965.32 41.5041C2962.99 38.3662 2958 31.7993 2953.55 27.1087C2949.1 22.418 2945.03 18.892 2939.07 14.816C2933.12 10.7399 2922.17 4.59359 2918.57 2.87908L2918.47 2.81438H3172.56C3180.43 3.20258 3188.06 4.3995 3196.82 7.63442C3206.4 11.1605 3225.6 24.359 3233.98 42.8304C3236.72 48.8474 3238.54 52.9881 3239.73 60.4284C3240.93 67.8687 3241.79 77.347 3240.11 86.8901C3236.69 106.526 3228.92 118.625 3216.33 129.688C3213.66 132.017 3210.34 134.185 3207.09 136.352C3201.82 139.878 3195.62 142.11 3189.94 143.825C3184.23 145.539 3178.72 146.348 3171.19 146.995C3163.63 147.642 3154.05 148.062 3148.84 148.257C3140.7 148.548 3140.39 147.221 3148.23 152.041C3154.05 155.665 3165.54 162.814 3181.97 172.033C3198.43 181.253 3223.34 194.451 3230.46 198.269H3230.43ZM2323.07 0.291143H2223.56C2198.61 0.291143 2177.36 8.6049 2159.73 25.2648C2142.11 41.9246 2133.32 62.0135 2133.32 85.5961V205.385H2187.08V154.241H2359.55V205.385H2413.31V85.5961C2413.31 62.0135 2404.51 41.9246 2386.89 25.2648C2369.3 8.6049 2348.02 0.291143 2323.07 0.291143ZM2359.55 103.421H2187.08V85.5961C2187.08 76.0531 2190.63 67.9334 2197.75 61.2048C2204.87 54.4761 2213.46 51.1118 2223.56 51.1118H2323.07C2333.16 51.1118 2341.75 54.4761 2348.87 61.2048C2355.99 67.9334 2359.55 76.0531 2359.55 85.5961V103.421ZM2046.16 0H2099.92V205.385H2046.16V154.047H1872.76V205.385H1819V0H1872.76V103.194H2046.16V0ZM2508.75 103.938L2682.18 205.385H2587.49L2435 116.263L2432.64 114.678L2431 112.964L2429.7 111.152L2428.5 108.499L2428.16 106.655L2428.02 103.485L2428.16 102.03L2429.05 99.1828L2429.94 97.7594L2431.92 95.3656L2434.05 93.4893L2435.76 92.2924L2438.46 90.3191L2444 86.793L2587.01 2.84673H2682.11L2508.78 103.938H2508.75Z"/>
</mask>
<path fill-rule="evenodd" clip-rule="evenodd" d="M2918.06 16.0776C2901.46 6.98744 2883.46 2.42619 2863.99 2.42619H2805.34H2746.62C2716.91 2.42619 2691.59 12.3574 2670.61 32.1875C2649.64 52.0176 2639.13 75.9884 2639.13 104.035C2639.13 132.082 2649.64 156.053 2670.61 175.883C2691.59 195.713 2716.95 205.644 2746.62 205.644H2803.46H2863.99C2883.43 205.644 2901.46 201.083 2918.06 191.993C2934.66 182.903 2947.7 170.545 2957.21 154.985C2966.72 139.393 2971.48 122.41 2971.48 104.035C2971.48 85.6608 2966.72 68.6775 2957.21 53.0851C2947.7 37.4928 2934.62 25.1677 2918.06 16.0776ZM2900.54 138.293C2890.51 147.771 2878.33 152.527 2863.99 152.527H2746.62C2732.48 152.527 2720.4 147.771 2710.38 138.293C2700.35 128.815 2695.32 117.395 2695.32 104.035C2695.32 90.6749 2700.35 79.2557 2710.38 69.7773C2720.4 60.299 2732.48 55.5437 2746.62 55.5437H2803.46H2863.99C2878.33 55.5437 2890.51 60.299 2900.54 69.7773C2910.57 79.2557 2915.6 90.6749 2915.6 104.035C2915.6 117.395 2910.57 128.815 2900.54 138.293ZM3538 2.45854V52.9881H3425.28V206H3371.52V52.9557H3259.1V2.45854H3537.97H3538ZM3230.43 198.269C3237.54 202.086 3241.96 204.512 3243.5 205.353H3149.15C3145.97 203.509 3134.88 197.33 3125.1 191.734C3102.58 178.924 3057.75 153.53 3034.92 140.072C3012.1 126.615 3011.31 125.03 3010.73 123.218C3010.15 121.407 3009.74 119.304 3009.84 117.298C3009.91 115.293 3010.46 113.352 3011.31 111.799C3012.13 110.246 3013.23 109.049 3014.53 107.917C3015.83 106.785 3017.33 105.75 3018.57 105.2C3019.83 104.65 3020.86 104.553 3021.37 104.488C3021.89 104.423 3021.89 104.326 3046.9 104.294C3071.92 104.262 3121.95 104.262 3147.06 104.197C3172.15 104.132 3172.32 103.97 3172.39 103.938C3172.46 103.906 3172.46 103.97 3173.59 103.647C3174.68 103.323 3176.91 102.579 3179.3 101.415C3181.7 100.25 3184.3 98.6975 3186.76 96.6272C3189.22 94.5245 3191.59 91.9366 3193.23 88.9281C3194.84 85.9196 3195.69 82.4906 3196.07 78.9645C3196.41 75.4384 3196.27 71.783 3195.21 68.1922C3194.15 64.6338 3192.17 61.1077 3189.91 58.2933C3187.62 55.479 3185.08 53.3439 3182.59 51.7588C3180.09 50.1737 3174.65 47.7151 3172.29 47.5534C3169.92 47.3916 3168.42 47.521 3125.98 47.5534C3083.55 47.5857 2983.35 47.2299 2969.22 46.9711C2968.88 46.9711 2965.63 41.9246 2965.32 41.5041C2962.99 38.3662 2958 31.7993 2953.55 27.1087C2949.1 22.418 2945.03 18.892 2939.07 14.816C2933.12 10.7399 2922.17 4.59359 2918.57 2.87908L2918.47 2.81438H3172.56C3180.43 3.20258 3188.06 4.3995 3196.82 7.63442C3206.4 11.1605 3225.6 24.359 3233.98 42.8304C3236.72 48.8474 3238.54 52.9881 3239.73 60.4284C3240.93 67.8687 3241.79 77.347 3240.11 86.8901C3236.69 106.526 3228.92 118.625 3216.33 129.688C3213.66 132.017 3210.34 134.185 3207.09 136.352C3201.82 139.878 3195.62 142.11 3189.94 143.825C3184.23 145.539 3178.72 146.348 3171.19 146.995C3163.63 147.642 3154.05 148.062 3148.84 148.257C3140.7 148.548 3140.39 147.221 3148.23 152.041C3154.05 155.665 3165.54 162.814 3181.97 172.033C3198.43 181.253 3223.34 194.451 3230.46 198.269H3230.43ZM2323.07 0.291143H2223.56C2198.61 0.291143 2177.36 8.6049 2159.73 25.2648C2142.11 41.9246 2133.32 62.0135 2133.32 85.5961V205.385H2187.08V154.241H2359.55V205.385H2413.31V85.5961C2413.31 62.0135 2404.51 41.9246 2386.89 25.2648C2369.3 8.6049 2348.02 0.291143 2323.07 0.291143ZM2359.55 103.421H2187.08V85.5961C2187.08 76.0531 2190.63 67.9334 2197.75 61.2048C2204.87 54.4761 2213.46 51.1118 2223.56 51.1118H2323.07C2333.16 51.1118 2341.75 54.4761 2348.87 61.2048C2355.99 67.9334 2359.55 76.0531 2359.55 85.5961V103.421ZM2046.16 0H2099.92V205.385H2046.16V154.047H1872.76V205.385H1819V0H1872.76V103.194H2046.16V0ZM2508.75 103.938L2682.18 205.385H2587.49L2435 116.263L2432.64 114.678L2431 112.964L2429.7 111.152L2428.5 108.499L2428.16 106.655L2428.02 103.485L2428.16 102.03L2429.05 99.1828L2429.94 97.7594L2431.92 95.3656L2434.05 93.4893L2435.76 92.2924L2438.46 90.3191L2444 86.793L2587.01 2.84673H2682.11L2508.78 103.938H2508.75Z" stroke="white" stroke-opacity="0.2" stroke-width="2" mask="url(#path-2-inside-2_283_2525)"/>
</svg>
