<svg width="92" height="40" viewBox="0 0 92 40" fill="none" xmlns="http://www.w3.org/2000/svg">
<g clip-path="url(#clip0_199_3427)">
<path d="M91.6912 0H0.580078V40H91.6912V0Z" fill="#005BFF"/>
<path d="M40.9303 23.3664H35.4721L42.4404 14.1563C42.5922 13.9541 42.5501 13.6592 42.3476 13.5075C42.2717 13.4485 42.1704 13.4148 42.0692 13.4148H31.9879C31.1021 13.4148 30.3766 14.1395 30.3766 15.0242C30.3766 15.909 31.1021 16.6337 31.9879 16.6337H36.5182L29.5245 25.8521C29.3643 26.0544 29.4064 26.3409 29.6089 26.501C29.6933 26.5684 29.7945 26.6021 29.8957 26.5937H40.9219C41.8077 26.5515 42.491 25.7931 42.4488 24.9C42.4066 24.0742 41.7486 23.4169 40.9219 23.3748V23.3664H40.9303ZM76.1599 13.4148C75.2741 13.4148 74.5486 14.1395 74.5486 15.0242V20.4255L65.8424 13.5243C65.6484 13.3642 65.3531 13.3895 65.1929 13.5918C65.1254 13.676 65.0916 13.7771 65.0916 13.8867V24.9842C65.0916 25.869 65.8171 26.5937 66.7029 26.5937C67.5887 26.5937 68.3143 25.8774 68.3143 24.9842V19.5829L77.0204 26.4925C77.2229 26.6526 77.5182 26.6189 77.6785 26.4167C77.7459 26.3324 77.7797 26.2313 77.7797 26.1302V15.0242C77.7712 14.131 77.0457 13.4148 76.1599 13.4148ZM53.1206 23.6697C49.434 23.6697 46.6838 21.7316 46.6838 19.9958C46.6838 18.26 49.4424 16.3219 53.1206 16.3219C56.7988 16.3219 59.5575 18.26 59.5575 19.9958C59.5575 21.7316 56.8073 23.6697 53.1206 23.6697ZM53.1206 13.103C47.7889 13.103 43.4612 16.1871 43.4612 19.9958C43.4612 23.8045 47.7889 26.8886 53.1206 26.8886C58.4523 26.8886 62.7801 23.8045 62.7801 19.9958C62.7717 16.1871 58.4523 13.103 53.1206 13.103ZM21.4005 23.6781C19.3673 23.6781 17.7138 22.035 17.7138 20.0042C17.7138 17.9735 19.3589 16.3219 21.392 16.3219C23.4252 16.3219 25.0787 17.965 25.0787 19.9958V20.0042C25.0787 22.0266 23.4336 23.6697 21.4005 23.6781ZM21.4005 13.103C17.5873 13.103 14.4996 16.1871 14.4912 19.9958C14.4912 23.8045 17.5789 26.8886 21.392 26.897C25.2052 26.897 28.2929 23.8129 28.3013 20.0042V19.9958C28.3013 16.1871 25.2136 13.103 21.4005 13.103Z" fill="white"/>
</g>
<defs>
<clipPath id="clip0_199_3427">
<rect width="91.1111" height="40" fill="white" transform="translate(0.580078)"/>
</clipPath>
</defs>
</svg>
