<svg width="147" height="40" viewBox="0 0 147 40" fill="none" xmlns="http://www.w3.org/2000/svg">
<g clip-path="url(#clip0_199_3430)">
<path d="M146.025 0H0.691406V40H146.025V0Z" fill="#CD0AAE"/>
<path fill-rule="evenodd" clip-rule="evenodd" d="M63.4972 16.0872C62.0721 16.0872 60.787 16.5091 59.6885 17.2303V10.631H56.6516V22.8019C56.6516 26.5055 59.7244 29.4842 63.4829 29.4842C67.2413 29.4842 70.3464 26.5199 70.3464 22.7695C70.3464 19.019 67.3095 16.0872 63.4972 16.0872ZM47.724 16.2891C44.3425 16.6245 41.5784 19.4878 41.5784 22.8885C41.5784 26.4911 44.7194 29.5058 48.3917 29.5058C52.064 29.5058 55.205 26.4911 55.205 22.8885C55.205 21.3558 54.6378 19.9422 53.7296 18.8315L47.0025 10.649H43.0717L47.724 16.2891ZM24.2114 23.6638L21.4293 16.5596H19.3006L16.5042 23.6638L13.7078 16.5596H10.3945L15.2873 29.0515H17.416L20.3524 21.6119L23.3032 29.0515H25.4319L30.3067 16.5596H27.0113L24.2149 23.6638H24.2114ZM78.5812 16.1052C74.7869 16.1052 71.7177 19.001 71.7177 22.6541C71.7177 26.3071 74.41 29.5058 78.4125 29.5058C80.814 29.5058 82.7525 28.3771 84.1273 26.4406L81.7581 24.5545C81.0725 25.7662 79.7515 26.473 78.4305 26.473C76.7146 26.473 75.031 25.2794 74.8946 23.5268H84.8309V22.618C84.8309 18.7954 82.2571 16.1052 78.5848 16.1052H78.5812ZM117.368 16.1052C113.574 16.1052 110.519 19.001 110.519 22.82C110.519 26.4045 113.211 29.5022 117.196 29.5022C119.597 29.5022 121.536 28.3735 122.911 26.437L120.818 24.7024C120.078 25.8131 118.739 26.4694 117.146 26.4694C115.552 26.4694 113.832 25.2758 113.696 23.5232H123.6V22.481C123.6 18.7954 121.044 16.1016 117.372 16.1016L117.368 16.1052ZM128.008 20.2127C128.008 19.4373 129.089 18.8171 130.496 18.8171C131.903 18.8171 133.464 19.5059 134.477 20.6166L136.311 18.4132C134.559 16.8986 132.793 16.1088 130.578 16.1088C127.814 16.1088 124.968 17.3529 124.968 20.2163C124.968 23.7359 128.055 23.9884 130.578 24.1903C131.985 24.2913 133.238 24.3923 133.238 25.301C133.238 26.2783 131.813 26.7327 130.56 26.7327C129.103 26.7327 127.523 26.1268 126.371 24.7637L124.415 26.8012C125.976 28.6692 128.241 29.495 130.456 29.495C133.238 29.495 136.275 28.2004 136.275 25.2361C136.275 21.8859 133.152 21.565 130.751 21.3306C129.239 21.1791 128.004 21.0457 128.004 20.2199L128.008 20.2127ZM89.4437 19.4049V16.5596H86.4068V29.0334H89.4437V23.7648C89.8565 20.8185 92.2401 19.6393 95.0042 19.6393V16.5596H94.6955C92.3622 16.5596 90.6606 17.3998 89.4437 19.4049ZM99.0893 19.4049V16.5596H96.0524V29.0334H99.0893V23.7648C99.5021 20.4471 102.421 19.6393 104.65 19.6393V16.5596H104.323C102.022 16.5596 100.288 17.3854 99.0893 19.4049ZM36.9764 29.0334H40.0133V10.649H36.9764V29.0298V29.0334ZM48.4061 26.5091C46.3133 26.5091 44.6117 24.8611 44.6117 22.8055C44.6117 20.75 46.3097 19.0839 48.3881 19.0839C50.4666 19.0839 52.2148 20.732 52.2148 22.8055C52.2148 24.8791 50.4989 26.5091 48.4061 26.5091ZM63.4757 26.5091C61.4152 26.5091 59.6814 24.8935 59.6814 22.7875C59.6814 20.6815 61.3111 19.0839 63.4901 19.0839C65.669 19.0839 67.2988 20.75 67.2988 22.7875C67.2988 24.825 65.5649 26.5091 63.4721 26.5091H63.4757ZM31.7246 29.0334H34.7615V16.5596H31.7246V29.0334ZM105.953 29.0334H108.99V16.5596H105.953V29.0334ZM33.2072 10.4976C31.9723 10.4976 30.9421 11.5073 30.9421 12.7875C30.9421 14.0677 32.0226 14.9584 33.2072 14.9584C34.5282 14.9584 35.5226 13.8802 35.5226 12.719C35.5226 11.5578 34.4744 10.4976 33.2072 10.4976ZM107.471 10.4976C106.236 10.4976 105.188 11.5073 105.188 12.7695C105.188 14.0316 106.201 14.9404 107.522 14.9404C108.843 14.9404 109.754 14.0497 109.754 12.82C109.754 11.5902 108.724 10.4976 107.471 10.4976ZM114.062 21.0349C114.561 19.8052 115.641 19.0839 117.239 19.0839C118.836 19.0839 119.795 19.8412 120.208 21.0349H114.062ZM75.2572 21.0349C75.7705 19.8052 76.8366 19.0839 78.4161 19.0839C79.9956 19.0839 81.0258 19.8412 81.4351 21.0349H75.2572Z" fill="#FEFEFE"/>
</g>
<defs>
<clipPath id="clip0_199_3430">
<rect width="145.333" height="40" fill="white" transform="translate(0.691406)"/>
</clipPath>
</defs>
</svg>
