<svg width="204" height="30" viewBox="0 0 204 30" fill="none" xmlns="http://www.w3.org/2000/svg">
<g clip-path="url(#clip0_199_3433)">
<path fill-rule="evenodd" clip-rule="evenodd" d="M30.0244 15C30.0244 23.28 23.3177 30 15.0244 30C6.73108 30 0.0244141 23.2933 0.0244141 15C0.0244141 6.70667 6.73108 0 15.0244 0C23.3177 0 30.0244 6.72 30.0244 15Z" fill="#FF5226"/>
<path fill-rule="evenodd" clip-rule="evenodd" d="M17.4511 24.4532V8.38658H15.5711C14.2111 8.38658 13.1845 8.66658 12.4778 9.25324C11.7845 9.81324 11.4245 10.5466 11.4245 11.4799C11.4245 12.1732 11.5445 12.7732 11.7978 13.2666C12.0511 13.7599 12.4111 14.2132 12.8778 14.6266C13.3578 15.0399 13.9445 15.4932 14.6645 15.9866L16.4511 17.1866L11.1978 24.4532H7.23779L12.2378 17.6532L14.5845 19.7466L12.7311 18.5732C11.7978 17.9732 10.9178 17.2932 10.0778 16.5599C9.34446 15.9066 8.77113 15.1866 8.38446 14.3999C7.99779 13.6132 7.79779 12.7066 7.79779 11.6532C7.79779 9.85324 8.45113 8.38658 9.74446 7.26658C11.0645 6.13324 12.9845 5.57324 15.5178 5.57324H21.1045V24.4399H17.4378L17.4511 24.4532Z" fill="white"/>
<path fill-rule="evenodd" clip-rule="evenodd" d="M47.5845 30C39.3045 30 32.5845 23.3067 32.5845 15.0267C32.5845 6.74667 39.3045 0 47.5845 0C55.8645 0 62.5845 6.74667 62.5845 15.0267C62.5845 23.3067 55.8511 30 47.5845 30Z" fill="#FF5226"/>
<path fill-rule="evenodd" clip-rule="evenodd" d="M45.2642 2.02661L28.5176 28.1466H36.1842L45.8642 13.0933L45.6242 12.9866L42.9442 23.7599L48.6109 24.7599L54.4509 17.4266L54.1309 17.2666L52.1709 25.5999L64.5309 23.2399L61.9976 19.0799L57.5442 20.1066L58.0776 20.7066L60.1442 12.0133L55.3176 8.78661L48.9842 16.7466L49.3042 16.8933L51.9042 6.46661L45.2642 2.02661Z" fill="#FFDD00"/>
<path fill-rule="evenodd" clip-rule="evenodd" d="M45.2642 2.02661L28.5176 28.1466H36.1842L45.8642 13.0933L45.6242 12.9866L42.9442 23.7599L48.6109 24.7599L54.4509 17.4266L54.1309 17.2666L52.1709 25.5999L57.1309 24.6399L60.1442 12.0133L55.3176 8.78661L48.9842 16.7466L49.3042 16.8933L51.9042 6.46661L45.2642 2.02661Z" fill="#FFDD00"/>
<path fill-rule="evenodd" clip-rule="evenodd" d="M68.3311 24.4533L77.6511 5.58667H84.7577L86.2111 17.08L93.4111 5.58667H100.451V24.4533H93.5577V14.32L87.1711 24.4533H80.2777L78.9577 14.24L73.8911 24.4533H68.3311ZM121.611 20.72C121.611 21.36 121.611 21.9867 121.638 22.6C121.664 23.2133 121.691 23.8267 121.758 24.4133H115.371C115.224 24.12 115.091 23.8133 114.998 23.4933C114.864 23.0667 114.784 22.64 114.744 22.2C114.091 22.9867 113.251 23.6267 112.238 24.1467C111.251 24.64 109.838 24.8933 107.998 24.8933C106.158 24.8933 104.664 24.4533 103.544 23.6C102.451 22.7333 101.904 21.5867 101.904 20.1333C101.904 18.8 102.278 17.7733 103.051 17.04C103.838 16.3067 105.051 15.7867 106.691 15.4933C108.344 15.1867 110.451 15.0267 113.024 15.0267H114.624V14.68C114.624 14.0267 114.344 13.52 113.798 13.1733C113.238 12.8267 112.198 12.64 110.678 12.64C109.158 12.64 107.771 12.84 106.478 13.2267C105.198 13.6 104.158 13.96 103.358 14.3333V10.2C104.264 9.86667 105.478 9.53334 106.998 9.21334C108.544 8.86667 110.304 8.68 112.278 8.68C114.251 8.68 115.958 8.86667 117.344 9.24C118.718 9.58667 119.771 10.2 120.491 11.0667C121.211 11.9067 121.571 13.08 121.571 14.5867V20.7067L121.611 20.72ZM123.704 9.17334H130.091L130.464 11.8C131.251 10.7733 132.184 10.0133 133.278 9.54667C134.371 9.08 135.624 8.84 137.051 8.84C138.651 8.84 140.091 9.12 141.371 9.70667C142.624 10.2533 143.678 11.1733 144.398 12.3333C145.131 13.5067 145.504 14.9867 145.504 16.7867C145.504 18.5867 145.131 20.0667 144.398 21.2667C143.678 22.44 142.664 23.32 141.371 23.92C140.078 24.5067 138.584 24.8133 136.918 24.8133C135.731 24.8133 134.544 24.6 133.424 24.16C132.358 23.7067 131.424 23 130.638 22.0267V28.4533H123.691V9.16L123.704 9.17334ZM165.651 16.7733C165.651 15.2533 166.064 13.8933 166.891 12.6933C167.731 11.4933 168.931 10.56 170.478 9.88C172.038 9.17334 173.878 8.82667 176.011 8.82667C178.144 8.82667 180.051 9.2 181.544 9.97334C183.038 10.7333 184.091 11.8133 184.691 13.2133C185.304 14.6133 185.398 16.2667 184.944 18.1867H172.744C172.984 19.0667 173.531 19.7333 174.384 20.1867C175.251 20.6133 176.518 20.84 178.211 20.84C179.384 20.84 180.478 20.7333 181.491 20.5333C182.438 20.32 183.371 20.0667 184.304 19.76V23.44C183.424 23.8533 182.438 24.1867 181.344 24.4267C180.278 24.68 178.864 24.8 177.118 24.8C173.264 24.8 170.398 24.0933 168.504 22.6667C166.638 21.2267 165.704 19.2533 165.704 16.76L165.651 16.7733ZM185.504 9.17334H203.144V13.1333H197.651V24.44H190.704V13.1333H185.518V9.17334H185.504ZM146.838 9.17334V24.4267H153.784V17.6933L159.224 24.4267H167.624L160.251 15.5333L166.371 9.17334H160.384L153.798 16.0933V9.17334H146.851H146.838ZM176.024 12.2933C175.078 12.2933 174.331 12.5733 173.771 13.12C173.211 13.6533 172.851 14.3467 172.691 15.1867H178.811C178.784 14.3333 178.558 13.6533 178.131 13.12C177.704 12.5733 176.998 12.2933 176.038 12.2933H176.024ZM138.411 16.7733C138.411 15.5333 138.064 14.56 137.384 13.84C136.718 13.0933 135.771 12.72 134.544 12.72C133.411 12.72 132.464 13.0667 131.704 13.7733C130.944 14.4533 130.558 15.4533 130.558 16.7733C130.558 18.0933 130.931 19.1067 131.678 19.8267C132.438 20.52 133.398 20.88 134.544 20.88C135.824 20.88 136.771 20.5067 137.424 19.76C138.078 19.0267 138.411 18.0267 138.411 16.76V16.7733ZM114.651 17.8533H113.078C111.571 17.8533 110.491 17.9733 109.838 18.2267C109.198 18.4667 108.891 18.9467 108.891 19.64C108.891 20.24 109.091 20.68 109.504 20.9733C109.944 21.24 110.451 21.3733 111.051 21.3733C111.958 21.3733 112.691 21.2133 113.264 20.88C113.864 20.52 114.331 20.12 114.651 19.6667V17.84V17.8533Z" fill="black"/>
</g>
<defs>
<clipPath id="clip0_199_3433">
<rect width="203.12" height="30" fill="white" transform="translate(0.0244141)"/>
</clipPath>
</defs>
</svg>
