<?xml version="1.0" encoding="utf-8"?><svg viewBox="0 0 1375 175" xmlns="http://www.w3.org/2000/svg" xmlns:xlink="http://www.w3.org/1999/xlink"><style>:root>svg{display:none}:root>svg:target{display:block}</style><svg fill="none" viewBox="0 0 19 14" id="advantage_marker" xmlns="http://www.w3.org/2000/svg"><path d="M2 9.518V4.482a2.01 2.01 0 011.51-1.946 24.115 24.115 0 0111.98 0A2.01 2.01 0 0117 4.482v5.036a2.01 2.01 0 01-1.51 1.946 24.114 24.114 0 01-11.98 0A2.01 2.01 0 012 9.518z" stroke="currentColor" stroke-width="2.5"/></svg><svg fill="none" viewBox="0 0 25 21" id="btn_arrow" xmlns="http://www.w3.org/2000/svg"><path d="M14.333 2l8 8.376m0 0l-8 8.624m8-8.624h-21" stroke="currentColor" stroke-width="2.5" stroke-linecap="round"/></svg><svg fill="none" viewBox="0 0 13 13" id="btn_arrow_up" xmlns="http://www.w3.org/2000/svg"><path d="M3.785 1.522l7.41.17m0 0l.283 7.523m-.283-7.523l-9.503 9.503" stroke="currentColor" stroke-width="2" stroke-linecap="round"/></svg><svg fill="none" viewBox="0 0 17 17" id="handset" xmlns="http://www.w3.org/2000/svg"><path d="M4.12 7.518a12.27 12.27 0 005.37 5.366l1.793-1.797a.818.818 0 01.827-.2 9.274 9.274 0 002.909.465c.452 0 .815.362.815.815v2.851a.812.812 0 01-.815.815c-7.651 0-13.852-6.2-13.852-13.852 0-.452.367-.814.815-.814h2.852c.452 0 .814.362.814.814 0 1.015.163 1.997.465 2.91a.817.817 0 01-.2.826L4.121 7.518z" fill="currentColor"/></svg><svg fill="none" viewBox="0 0 1375 175" id="home_intro_logo" xmlns="http://www.w3.org/2000/svg"><mask id="ea" style="mask-type:alpha" maskUnits="userSpaceOnUse" x="0" y="0" width="1375" height="175"><g clip-path="url(#eclip0_283_2508)" fill="#6B3D90"><path fill-rule="evenodd" clip-rule="evenodd" d="M1375 0v42.932h-90.17V172.94h-43V42.905h-89.92V0H1375z"/><path d="M1139.43 172.087c-1.23-.715-4.76-2.776-10.45-6.02h.02c-5.69-3.243-25.62-14.457-38.78-22.29a645.256 645.256 0 01-26.99-16.987c-6.27-4.095-6.02-2.968.49-3.215 4.16-.165 11.83-.523 17.87-1.072 6.03-.55 10.43-1.237 15-2.694 4.55-1.457 9.5-3.353 13.72-6.349 2.6-1.841 5.25-3.683 7.39-5.662 10.07-9.4 16.29-19.68 19.02-36.363 1.34-8.108.66-16.162-.3-22.483-.96-6.322-2.41-9.84-4.6-14.953-6.7-15.694-22.06-26.908-29.72-29.904-7.01-2.748-13.11-3.765-19.41-4.095H879.449l.082.055c2.874 1.457 11.634 6.679 16.396 10.142 4.763 3.463 8.021 6.46 11.579 10.445 3.558 3.985 7.555 9.564 9.416 12.23.246.358 2.847 4.646 3.121 4.646 11.304.22 91.447.522 125.397.494 33.94-.027 35.14-.137 37.03 0 1.89.138 6.24 2.227 8.24 3.574 2 1.346 4.02 3.16 5.86 5.552 1.8 2.39 3.39 5.387 4.24 8.41.85 3.051.96 6.157.68 9.153-.3 2.996-.98 5.91-2.27 8.465-1.31 2.556-3.2 4.755-5.17 6.542-1.97 1.759-4.05 3.078-5.97 4.068a29.75 29.75 0 01-4.57 1.896c-.9.275-.9.22-.96.248-.05.029-.32.165-20.25.22-20.09.054-60.11.055-80.122.082-20.009.027-20.009.11-20.42.165-.41.055-1.232.137-2.244.605-.986.467-2.19 1.346-3.23 2.308-1.041.962-1.916 1.98-2.573 3.299-.685 1.319-1.123 2.968-1.177 4.672-.083 1.704.246 3.491.711 5.03.466 1.539 1.095 2.886 19.353 14.32 18.257 11.434 54.112 33.01 72.122 43.894 7.83 4.755 16.7 10.005 19.25 11.572h75.46z"/><path fill-rule="evenodd" clip-rule="evenodd" d="M879.121 11.599C865.845 3.875 851.447 0 835.872 0h-93.887c-23.76 0-44.015 8.438-60.795 25.287-16.779 16.848-25.182 37.215-25.182 61.045s8.403 44.197 25.182 61.045c16.78 16.849 37.063 25.287 60.795 25.287h93.887c15.548 0 29.973-3.876 43.249-11.599 13.275-7.724 23.704-18.223 31.314-31.443 7.609-13.248 11.414-27.678 11.414-43.29 0-15.612-3.805-30.042-11.414-43.29-7.61-13.248-18.066-23.72-31.314-31.443zm-43.249 115.934c11.469 0 21.214-4.041 29.234-12.094 8.02-8.053 12.044-17.756 12.044-29.107 0-11.352-4.024-21.054-12.044-29.107S847.341 45.13 835.872 45.13h-93.887c-11.305 0-20.968 4.04-28.988 12.094-8.02 8.053-12.044 17.755-12.044 29.107 0 11.351 4.024 21.054 12.044 29.107s17.683 12.094 28.988 12.094h93.887z"/><path d="M690.443 172.087L551.719 85.892h.027L690.388 0H614.32L499.93 71.325l-4.434 2.996-2.162 1.676-1.369 1.017-1.697 1.594-1.588 2.034-.711 1.21-.712 2.418-.11 1.237.11 2.694.274 1.567.958 2.253 1.04 1.54 1.314 1.456 1.888 1.347 121.972 75.723h75.74z"/><path fill-rule="evenodd" clip-rule="evenodd" d="M403.196 0h-79.599c-19.954 0-36.953 7.064-51.049 21.219-14.097 14.155-21.132 31.223-21.132 51.26v101.779h43.002v-43.455h137.957v43.455h43.002V72.479c0-20.037-7.034-37.105-21.131-51.26C440.176 7.064 423.151 0 403.196 0zM294.418 87.624h137.957V72.479c0-8.108-2.847-15.007-8.54-20.724-5.693-5.717-12.564-8.575-20.639-8.575h-79.599c-8.075 0-14.945 2.858-20.639 8.575-5.693 5.717-8.54 12.616-8.54 20.724v15.145z"/><path d="M224.7 0h-43.002v87.679H43.002V0H0v174.505h43.002v-43.619h138.696v43.619H224.7V0z"/></g></mask><g mask="url(#ea)"><rect x="-18" y="-304" width="1411" height="783" rx="70" fill="#6B3D90"/><rect x="702" y="46" width="174" height="81" rx="40.5" fill="#A2C617"/></g><defs><clipPath id="eclip0_283_2508"><path fill="#fff" d="M0 0h1375v175H0z"/></clipPath></defs></svg><svg fill="none" viewBox="0 0 140 17" id="logo" xmlns="http://www.w3.org/2000/svg"><g clip-path="url(#fclip0_283_2631)"><path fill-rule="evenodd" clip-rule="evenodd" d="M89.51 1.327A8.921 8.921 0 0085.107.2H75.548c-2.42 0-4.482.82-6.19 2.457-1.709 1.636-2.565 3.615-2.565 5.93 0 2.315.856 4.293 2.565 5.93 1.708 1.637 3.773 2.456 6.19 2.456h9.559a8.93 8.93 0 004.403-1.126 8.429 8.429 0 003.189-3.055 8.005 8.005 0 001.162-4.205 8.004 8.004 0 00-1.162-4.205c-.775-1.287-1.84-2.305-3.189-3.055zm-1.427 10.087c-.816.783-1.808 1.175-2.976 1.175h-9.56c-1.15 0-2.134-.392-2.95-1.175-.817-.782-1.227-1.725-1.227-2.827 0-1.103.41-2.045 1.226-2.828.817-.782 1.8-1.175 2.952-1.175h9.559c1.168 0 2.16.393 2.977 1.175.816.783 1.226 1.725 1.226 2.828 0 1.102-.41 2.045-1.227 2.827zM140 .203v4.17h-9.18v12.63h-4.379V4.37h-9.155V.203H140zm-25.05 16.162c.58.315.94.515 1.065.584h-7.684c-.259-.152-1.162-.662-1.959-1.124-1.834-1.057-5.485-3.153-7.344-4.264-1.859-1.11-1.923-1.241-1.97-1.39a1.424 1.424 0 01-.073-.49 1.038 1.038 0 01.382-.774c.106-.093.229-.179.329-.224.103-.045.187-.053.228-.059.042-.005.042-.013 2.08-.016 2.037-.003 6.112-.003 8.157-.008 2.043-.005 2.057-.019 2.063-.021.005-.003.005.002.097-.024.089-.027.27-.088.466-.184a2.95 2.95 0 00.607-.396c.201-.173.393-.387.527-.635.131-.248.201-.531.231-.822a2.342 2.342 0 00-.07-.89 2.507 2.507 0 00-.431-.817 2.499 2.499 0 00-.597-.539c-.203-.13-.646-.334-.839-.347-.192-.013-.315-.003-3.771 0s-11.616-.027-12.767-.048c-.028 0-.293-.417-.318-.451-.19-.26-.596-.801-.958-1.189a6.826 6.826 0 00-1.18-1.014 17.688 17.688 0 00-1.669-.985l-.008-.006h20.694a6.29 6.29 0 011.975.398c.781.291 2.344 1.38 3.027 2.905.223.497.371.838.468 1.453.098.614.168 1.396.031 2.184-.279 1.62-.911 2.619-1.937 3.532-.217.192-.488.371-.752.55-.43.291-.934.475-1.397.617-.465.141-.914.208-1.527.262-.616.053-1.396.088-1.82.104-.663.024-.688-.086-.05.312.474.3 1.41.89 2.748 1.65 1.34.761 3.369 1.85 3.949 2.165h-.003zM41.053.023h-8.105c-2.032 0-3.762.686-5.198 2.061C26.315 3.46 25.6 5.118 25.6 7.065v9.887h4.378V12.73h14.047v4.22h4.378V7.066c0-1.947-.716-3.605-2.151-4.98C44.818.71 43.084.024 41.053.024zm2.97 8.512H29.978V7.065c0-.788.29-1.458.87-2.013.58-.556 1.279-.833 2.101-.833h8.105c.822 0 1.521.277 2.101.833.58.555.87 1.225.87 2.013v1.471zM18.5 0h4.379v16.952H18.5v-4.237H4.378v4.237H0V0h4.378v8.517H18.5V0zm37.675 8.579L70.3 16.952h-7.712L50.169 9.596l-.192-.13-.134-.142-.106-.15-.098-.219-.027-.152-.012-.262.012-.12.072-.235.073-.117.161-.198.173-.155.14-.098.22-.163.451-.291L62.549.235h7.745L56.178 8.579h-.003z" fill="currentColor"/></g><defs><clipPath id="fclip0_283_2631"><path fill="currentColor" d="M0 0h140v17H0z"/></clipPath></defs></svg><svg fill="none" viewBox="0 0 50 50" id="product_i_1" xmlns="http://www.w3.org/2000/svg"><path d="M26.25 28.333a2.083 2.083 0 100-4.166 2.083 2.083 0 000 4.166z" stroke="#6B3D90" stroke-width="2" stroke-linecap="round" stroke-linejoin="round"/><path d="M27.591 5.833a20.453 20.453 0 0113.126 5.949c7.933 7.936 7.933 20.997 0 28.933-7.934 7.936-20.99 7.936-28.924 0a20.469 20.469 0 01-5.96-13.359m28.548 7.021c4.489-4.49 4.489-11.77 0-16.26-4.489-4.491-11.767-4.491-16.256 0-4.489 4.49-4.489 11.77 0 16.26 4.49 4.49 11.767 4.49 16.256 0zm-2.29-2.291a8.258 8.258 0 000-11.675 8.251 8.251 0 00-11.672 0 8.258 8.258 0 000 11.675 8.251 8.251 0 0011.671 0z" stroke="#6C757D" stroke-width="2" stroke-linecap="round" stroke-linejoin="round"/><path d="M21.992 24.402a.626.626 0 010 .916.701.701 0 01-.96 0 .626.626 0 010-.916.701.701 0 01.96 0zm3.816-3.379a.626.626 0 000 .916.701.701 0 00.96 0 .626.626 0 000-.916.701.701 0 00-.96 0zm4.7 3.3a.626.626 0 000 .916.701.701 0 00.96 0 .626.626 0 000-.915.701.701 0 00-.96 0zm-1.74 5.402a.626.626 0 000 .915.701.701 0 00.96 0 .626.626 0 000-.915.701.701 0 00-.96 0zm-5.994.003a.626.626 0 000 .915.701.701 0 00.96 0 .626.626 0 000-.915.701.701 0 00-.96 0z" fill="#6B3D90"/><path d="M6.273 20.394a.746.746 0 11-1.055 1.055.746.746 0 011.055-1.055zM20.394 5.218a.746.746 0 101.055 1.054.746.746 0 00-1.055-1.054z" fill="#6C757D"/><path d="M11.448 13.958a20.03 20.03 0 017.72-5.625M7.113 16.54a1.547 1.547 0 000 2.176c.597.603 1.565.6 2.165 0 .6-.6.597-1.573 0-2.176a1.525 1.525 0 00-2.165 0z" stroke="#6C757D" stroke-width="2" stroke-linecap="round" stroke-linejoin="round"/><path d="M3.333 23.127l.065-7.403L15.83 3.398l7.287-.065a1.032 1.032 0 011.05 1.04l-.042 4.507L8.748 24.126l-4.366.04a1.032 1.032 0 01-1.049-1.04z" stroke="#6B3D90" stroke-width="2" stroke-linecap="round" stroke-linejoin="round"/></svg><svg fill="none" viewBox="0 0 50 50" id="product_i_2" xmlns="http://www.w3.org/2000/svg"><path d="M26.25 28.333a2.083 2.083 0 100-4.166 2.083 2.083 0 000 4.166z" stroke="#6B3D90" stroke-width="2" stroke-linecap="round" stroke-linejoin="round"/><path d="M27.591 6.667c4.95.317 9.616 2.388 13.126 5.827 7.933 7.774 7.933 20.568 0 28.342-7.934 7.774-20.99 7.774-28.924 0-3.564-3.492-5.687-8.155-5.96-13.086m6.339-1.037c-.495.034-.98.138-1.444.308-.464.17-.901.402-1.297.693m6.902 8.747a5.067 5.067 0 00-1.218 2.606m11.193 1.401a5.062 5.062 0 001.02 2.686m8.927-6.763c.375.317.792.582 1.242.782.451.201.929.342 1.417.412m1.43-10.969c.495-.033.98-.137 1.444-.307a5.124 5.124 0 001.298-.693m-6.903-8.747a5.065 5.065 0 001.219-2.606m-11.193-1.401a4.917 4.917 0 00-.314-1.415 4.905 4.905 0 00-.294-.636m8.78 23.817a11.104 11.104 0 000-15.93c-4.489-4.398-11.767-4.398-16.256 0a11.104 11.104 0 000 15.93c4.49 4.399 11.767 4.399 16.256 0zm-2.29-2.245a7.973 7.973 0 000-11.436c-3.223-3.158-8.45-3.158-11.672 0a7.973 7.973 0 000 11.436c3.223 3.158 8.449 3.158 11.671 0z" stroke="#6C757D" stroke-width="2" stroke-linecap="round" stroke-linejoin="round"/><path d="M21.992 24.402a.626.626 0 010 .916.701.701 0 01-.96 0 .626.626 0 010-.916.701.701 0 01.96 0zm3.816-3.379a.626.626 0 000 .916.701.701 0 00.96 0 .626.626 0 000-.916.701.701 0 00-.96 0zm4.7 3.3a.626.626 0 000 .916.701.701 0 00.96 0 .626.626 0 000-.915.701.701 0 00-.96 0zm-1.74 5.402a.626.626 0 000 .915.701.701 0 00.96 0 .626.626 0 000-.915.701.701 0 00-.96 0zm-5.994.003a.626.626 0 000 .915.701.701 0 00.96 0 .626.626 0 000-.915.701.701 0 00-.96 0z" fill="#6B3D90"/><path d="M7.042 21.228a.774.774 0 010 1.054.684.684 0 01-1.002 0 .774.774 0 010-1.054.684.684 0 011.002 0zM20.457 6.052a.774.774 0 000 1.054c.277.29.726.29 1.002 0a.774.774 0 000-1.054.684.684 0 00-1.002 0z" fill="#6C757D"/><path d="M11.448 13.958a20.03 20.03 0 017.72-5.625M7.113 16.54a1.547 1.547 0 000 2.176c.597.603 1.565.6 2.165 0 .6-.6.597-1.573 0-2.176a1.525 1.525 0 00-2.165 0z" stroke="#6C757D" stroke-width="2" stroke-linecap="round" stroke-linejoin="round"/><path d="M3.333 23.127l.065-7.403L15.83 3.398l7.287-.065a1.032 1.032 0 011.05 1.04l-.042 4.507L8.748 24.126l-4.366.04a1.032 1.032 0 01-1.049-1.04z" stroke="#6B3D90" stroke-width="2" stroke-linecap="round" stroke-linejoin="round"/></svg><svg fill="none" viewBox="0 0 50 50" id="product_i_3" xmlns="http://www.w3.org/2000/svg"><path d="M15.584 41.975v3.106a.746.746 0 01-.74.752h-2.437a.746.746 0 01-.74-.752v-3.106m3.917-33.93V4.92a.746.746 0 00-.74-.752h-2.437c-.41 0-.74.338-.74.752v3.106m22.75 0V4.919c0-.417.332-.752.74-.752h2.437c.41 0 .74.338.74.752v3.106m-3.918 33.93v3.126c0 .417.333.752.74.752h2.438c.41 0 .74-.338.74-.752v-3.106" stroke="#6B3D90" stroke-width="2" stroke-linecap="round" stroke-linejoin="round"/><path d="M7.57 15.919c.255-1.252.557-2.477.914-3.664a36.58 36.58 0 011.412-3.922l8.702.03v3.59l3.722 2.694v3.925h-2.55a18.74 18.74 0 00-.044 12.877l.044.125h2.55v3.952l-3.695 2.46v3.68H9.828C7.77 36.779 6.667 30.999 6.667 25.079c0-1.852.109-3.704.323-5.523M18.608 25H6.667m35.76 9.081a41.568 41.568 0 01-.913 3.664 36.58 36.58 0 01-1.413 3.922l-8.702-.03v-3.59l-3.721-2.694V31.43h2.55a18.74 18.74 0 00.044-12.878l-.044-.125h-2.55v-3.952l3.694-2.46v-3.68h8.8c2.058 4.888 3.162 10.668 3.162 16.588 0 1.852-.109 3.704-.323 5.523M31.392 25h11.942" stroke="#6C757D" stroke-width="2" stroke-linecap="round" stroke-linejoin="round"/></svg><svg fill="none" viewBox="0 0 50 50" id="product_i_4" xmlns="http://www.w3.org/2000/svg"><path d="M11.159 29.672a1.732 1.732 0 01-2.448 0 1.732 1.732 0 012.448-2.448c.231.231.254.148.327.441m18.281-16.62a1.732 1.732 0 10-2.275-2.602 1.732 1.732 0 00.804 2.903m10.54 5.918l5.727-5.599a1.495 1.495 0 000-2.114l-4.518-4.517-3.218-.58a18.114 18.114 0 00-9.702.914 6.873 6.873 0 00-4.341 5.453 2.218 2.218 0 01-1.648 1.838l-2.293.584a7.75 7.75 0 00-5.6 5.6l-.583 2.293a2.214 2.214 0 01-1.839 1.648 6.862 6.862 0 00-5.453 4.34 18.118 18.118 0 00-.913 9.703l.58 3.218 4.517 4.517c.583.584 1.53.584 2.113 0l5.6-5.725m-4.136 4.261l1.75 1.75a21.517 21.517 0 0011.05-2.12l.675-.33L34.5 34.5l7.897-7.897.33-.675a21.487 21.487 0 002.121-11.05l-1.75-1.75m-8.602 21.372l-5.676-5.68" stroke="#6C757D" stroke-width="2" stroke-linecap="round" stroke-linejoin="round"/><path d="M12.727 34.626l-2.48 2.48a.843.843 0 000 1.192l1.455 1.456a.843.843 0 001.191 0l2.489-2.489m21.883-21.883l2.489-2.489a.843.843 0 000-1.191l-1.456-1.456a.843.843 0 00-1.192 0l-2.48 2.481m-11.534 5.515c.068-1.662.44-2.99 1.79-4.337 3.522-3.521 9.538-3.03 12.362 1.48 1.838 2.936 1.484 6.667-.784 9.285-1.372 1.585-2.882 2.101-4.745 2.202-2.528.138-4.749 2.348-4.853 4.875-.069 1.662-.441 2.99-1.792 4.338-3.52 3.52-9.537 3.03-12.36-1.481-1.839-2.936-1.485-6.666.783-9.284 1.372-1.586 2.882-2.102 4.745-2.203 2.528-.137 4.749-2.348 4.854-4.875z" stroke="#6B3D90" stroke-width="2" stroke-linecap="round" stroke-linejoin="round"/></svg><svg fill="none" viewBox="0 0 50 50" id="product_i_5" xmlns="http://www.w3.org/2000/svg"><path d="M8.333 10.833v19.908c0 9.194 7.711 16.759 17.083 16.759 9.372 0 17.084-7.565 17.084-16.76 0-9.193-7.712-16.758-17.084-16.758-5.153 0-10.039 2.287-13.279 6.218m-.403 10.54V10.834m27.36 0v9.992m3.402-9.992v19.912m-3.402 0c0 7.41-6.123 13.422-13.681 13.422-7.559 0-13.683-6.008-13.683-13.422 0-7.415 6.124-13.423 13.683-13.423 7.558 0 13.681 6.008 13.681 13.423z" stroke="#6C757D" stroke-width="2" stroke-linecap="round" stroke-linejoin="round"/><path d="M11.685 6.431l-.389-3.098H8.702l-.431 3.098m27.324 24.39c0 5.528-4.552 10.012-10.163 10.012-5.611 0-10.163-4.484-10.163-10.012 0-5.528 4.552-10.012 10.163-10.012 5.611 0 10.163 4.484 10.163 10.012zM12.456 6.431H7.5v4.294h4.956V6.431zm30.877 1.443h-4.856v2.851h4.856v-2.85z" stroke="#6B3D90" stroke-width="2" stroke-linecap="round" stroke-linejoin="round"/></svg><svg fill="none" viewBox="0 0 50 50" id="product_i_6" xmlns="http://www.w3.org/2000/svg"><path d="M6.789 33.05a20.006 20.006 0 01-.956-5.11M27.591 6.667c4.95.32 9.616 2.41 13.125 5.878 5.78 5.714 7.35 14.12 4.707 21.294M32.09 32.611a8.094 8.094 0 000-11.538c-3.222-3.186-8.449-3.186-11.67 0a8.094 8.094 0 000 11.538c3.221 3.186 8.448 3.186 11.67 0z" stroke="#6C757D" stroke-width="2" stroke-linecap="round" stroke-linejoin="round"/><path d="M21.992 24.7a.718.718 0 010 .991.662.662 0 01-.96 0 .718.718 0 010-.992.662.662 0 01.96 0zm3.816-3.661a.718.718 0 000 .992.662.662 0 00.96 0 .718.718 0 000-.992.663.663 0 00-.96 0zm4.7 3.575a.718.718 0 000 .993.663.663 0 00.96 0 .718.718 0 000-.992.662.662 0 00-.96 0zm-1.74 5.851a.718.718 0 000 .992.662.662 0 00.96 0 .718.718 0 000-.992.663.663 0 00-.96 0zm-5.994.004a.718.718 0 000 .992.663.663 0 00.96 0 .718.718 0 000-.992.662.662 0 00-.96 0zM7.042 21.227a.774.774 0 010 1.055.684.684 0 01-1.002 0 .774.774 0 010-1.055.684.684 0 011.002 0zM20.457 6.051a.774.774 0 000 1.055c.277.29.726.29 1.002 0a.774.774 0 000-1.055.684.684 0 00-1.002 0z" fill="#6B3D90"/><path d="M11.448 13.958a20.03 20.03 0 017.72-5.625M7.113 16.54a1.547 1.547 0 000 2.176c.597.603 1.565.6 2.165 0 .6-.6.597-1.573 0-2.176a1.525 1.525 0 00-2.165 0z" stroke="#6C757D" stroke-width="2" stroke-linecap="round" stroke-linejoin="round"/><path d="M20.252 43.093h13.956c.944 0 1.81.47 2.37 1.22a5.842 5.842 0 004.69 2.35 5.85 5.85 0 005.398-3.58H42.27a2.261 2.261 0 01-2.264-2.256 2.261 2.261 0 012.264-2.255h4.383a5.848 5.848 0 00-5.384-3.55 5.839 5.839 0 00-4.678 2.333c-.564.747-1.426 1.214-2.363 1.214h-.108m-18.243 4.55h-.11c-.936 0-1.802.464-2.362 1.215a5.839 5.839 0 01-4.678 2.333 5.852 5.852 0 01-5.384-3.55h4.383c1.25 0 2.264-1.012 2.264-2.256a2.261 2.261 0 00-2.264-2.255H3.333a5.843 5.843 0 015.398-3.58c1.921 0 3.625.922 4.691 2.35.564.753 1.43 1.22 2.37 1.22h18.436m-9.478-10.54a2.269 2.269 0 010-3.218 2.291 2.291 0 013.232 0c.893.889.893 2.33 0 3.218a2.29 2.29 0 01-3.232 0zM4.375 24.125l4.339-.04 15.28-15.216.04-4.497a1.028 1.028 0 00-1.042-1.038l-7.241.065-12.353 12.3-.065 7.388a1.028 1.028 0 001.042 1.038z" stroke="#6B3D90" stroke-width="2" stroke-linecap="round" stroke-linejoin="round"/></svg><svg fill="none" viewBox="0 0 33 34" id="snowflake" xmlns="http://www.w3.org/2000/svg"><path d="M32.58 11.015l-12.24 6.84v-1.71l12.24 6.84-2.79 4.95-11.88-6.93.99-.63.09 13.41h-5.4l.09-13.41.99.63-11.88 6.93L0 22.985l12.33-6.84v1.71L0 11.015l2.79-5.04 11.88 7.02-.99.63-.09-13.41h5.4l-.09 13.41-.99-.63 11.88-7.02 2.79 5.04z" fill="#6B3D90"/></svg></svg>